<?xml version="1.0" standalone="no"?>
<!DOCTYPE svg PUBLIC "-//W3C//DTD SVG 1.1//EN" "http://www.w3.org/Graphics/SVG/1.1/DTD/svg11.dtd" >
<svg xmlns="http://www.w3.org/2000/svg">
<metadata></metadata>
<defs>
<font id="gt_walsheim_proRgOb" horiz-adv-x="1157" >
<font-face units-per-em="2048" ascent="1516" descent="-532" />
<missing-glyph horiz-adv-x="518" />
<glyph unicode="&#xfb01;" horiz-adv-x="1275" d="M125 780l16 150h201l16 162q12 127 54.5 197.5t94.5 105.5t105.5 43t87.5 8q55 0 87 -7t51 -18l-17 -151q-23 8 -47 12t-65 4q-25 0 -51.5 -4t-51 -21.5t-43 -52t-24.5 -98.5l-19 -180h266l-16 -150h-266l-82 -780h-178l82 780h-201zM903 0l98 930h179l-99 -930h-178z M989 1268q0 63 45 107t107 44q53 0 89 -36.5t36 -90.5q0 -61 -46 -104t-108 -43q-53 0 -88 35t-35 88z" />
<glyph unicode="&#xfb02;" horiz-adv-x="1208" d="M125 780l16 150h201l16 162q12 127 54.5 197.5t94.5 105.5t105.5 43t87.5 8q55 0 87 -7t51 -18l-17 -151q-23 8 -47 12t-65 4q-25 0 -51.5 -4t-51 -21.5t-43 -52t-24.5 -98.5l-19 -180h266l-16 -150h-266l-82 -780h-178l82 780h-201zM870 0l152 1434h178l-151 -1434h-179 z" />
<glyph unicode="&#xfb03;" horiz-adv-x="1984" d="M125 780l16 150h201l16 162q12 127 54.5 197.5t94.5 105.5t105.5 43t87.5 8q55 0 87 -7t51 -18l-17 -151q-23 8 -47 12t-65 4q-25 0 -51.5 -4t-51 -21.5t-43 -52t-24.5 -98.5l-19 -180h266l-16 -150h-266l-82 -780h-178l82 780h-201zM836 780l16 150h201l16 162 q12 127 54 197.5t93.5 105.5t103.5 43t89 8q57 0 89 -7t50 -18l-16 -151q-23 8 -47.5 12t-65.5 4q-25 0 -51.5 -4t-51 -21.5t-43 -52t-24.5 -98.5l-18 -180h266l-16 -150h-267l-81 -780h-179l82 780h-200zM1614 0l98 930h178l-98 -930h-178zM1694 1270q0 66 47 111.5 t110 45.5q57 0 94 -38.5t37 -92.5q0 -66 -48 -110.5t-111 -44.5q-57 0 -93 38t-36 91z" />
<glyph unicode="&#xfb04;" horiz-adv-x="1910" d="M125 780l16 150h201l16 162q12 127 54.5 197.5t94.5 105.5t105.5 43t87.5 8q55 0 87 -7t51 -18l-17 -151q-23 8 -47 12t-65 4q-25 0 -51.5 -4t-51 -21.5t-43 -52t-24.5 -98.5l-19 -180h266l-16 -150h-266l-82 -780h-178l82 780h-201zM836 780l16 150h201l16 162 q12 127 54 197.5t93.5 105.5t103.5 43t89 8q57 0 89 -7t50 -18l-16 -151q-23 8 -47.5 12t-65.5 4q-25 0 -51.5 -4t-51 -21.5t-43 -52t-24.5 -98.5l-18 -180h266l-16 -150h-267l-81 -780h-179l82 780h-200zM1581 0l152 1434h176l-152 -1434h-176z" />
<glyph horiz-adv-x="0" />
<glyph horiz-adv-x="0" />
<glyph unicode="&#xd;" horiz-adv-x="512" />
<glyph unicode=" "  horiz-adv-x="518" />
<glyph unicode="&#x09;" horiz-adv-x="518" />
<glyph unicode="&#xa0;" horiz-adv-x="518" />
<glyph unicode="!" horiz-adv-x="606" d="M166 111q0 33 13.5 62.5t36 51t52 33.5t62.5 12q59 0 98 -38.5t39 -96.5q0 -33 -13.5 -62.5t-37 -52t-53 -36t-62.5 -13.5q-59 0 -97 41.5t-38 98.5zM252 436l106 1006h193l-107 -1006h-192z" />
<glyph unicode="&#x22;" horiz-adv-x="724" d="M260 1315l16 153h168l-16 -153l-76 -361h-88zM571 1315l17 153h168l-17 -153l-75 -361h-91z" />
<glyph unicode="#" horiz-adv-x="1126" d="M104 428l15 139h215l72 299h-195l16 140h215l105 428h147l-104 -428h258l104 428h148l-105 -428h179l-17 -140h-199l-71 -299h178l-14 -139h-199l-104 -428h-146l105 428h-261l-104 -428h-145l104 428h-197zM481 567h258l72 299h-258z" />
<glyph unicode="$" horiz-adv-x="1169" d="M199 457h186q-8 -70 8.5 -129.5t53 -102.5t94 -66.5t133.5 -23.5q66 0 123 18.5t99 53.5t66.5 84t24.5 110q0 59 -22.5 99.5t-58.5 66t-79 43t-86 29.5q-86 29 -163.5 59.5t-136 73.5t-93.5 106.5t-35 155.5q0 86 31 160t86 129t132 91t171 48l23 213h137l-23 -215 q168 -20 261.5 -136t76.5 -296h-186q10 129 -53.5 199.5t-186.5 70.5q-119 0 -199.5 -62t-80.5 -173q0 -53 20.5 -90t54 -62.5t76.5 -43t90 -31.5q86 -29 165 -62t139.5 -79t95.5 -111.5t35 -159.5q0 -96 -37 -176t-100.5 -138.5t-148.5 -94t-179 -44.5l-23 -213h-137 l22 213q-90 10 -164.5 48t-124.5 100.5t-74 147.5t-13 190z" />
<glyph unicode="%" horiz-adv-x="1875" d="M244 901l30 279q6 55 32 103t67 85t96 58.5t121 21.5t117 -21.5t84.5 -59.5t49 -87t9.5 -104l-29 -279q-6 -55 -31.5 -103.5t-67.5 -85t-97.5 -58t-120.5 -21.5q-68 0 -118 21.5t-84 59.5t-49 87t-9 104zM391 901q-6 -59 28 -104t99 -45q66 0 109 45t49 104l29 275 q6 59 -28 104t-99 45q-66 0 -109 -45t-49 -104zM414 -2l1056 1542l134 -82l-1057 -1542zM1174 258l28 277q6 55 32 104t66.5 86t97 58.5t122.5 21.5t117 -22.5t84.5 -59.5t49 -87t9.5 -106l-29 -276q-6 -57 -32.5 -106.5t-68.5 -86t-97.5 -57t-118.5 -20.5q-68 0 -119 21.5 t-85 59t-48.5 88t-7.5 105.5zM1321 258q-6 -61 26.5 -106.5t98.5 -45.5t109.5 45.5t50.5 106.5l28 272q6 61 -27.5 105.5t-99.5 44.5t-108.5 -44t-48.5 -106z" />
<glyph unicode="&#x26;" horiz-adv-x="1226" d="M137 377q0 141 79 229t212 142q-90 37 -140 103.5t-50 176.5q0 98 39.5 177t106.5 134.5t155 86t186 30.5t177 -30.5t132 -88t78 -136.5t14 -173h-186q12 117 -45 188.5t-190 71.5q-123 0 -201 -64.5t-78 -185.5q0 -45 13.5 -82.5t43 -65.5t76.5 -43.5t117 -15.5h31 l-19 -165h-31q-88 0 -150.5 -24t-103.5 -62.5t-60 -89t-19 -103.5q0 -117 76.5 -179.5t187.5 -62.5q139 0 229 91.5t109 242.5h-168l16 166h477l-16 -166h-123q-12 -115 -59 -208t-119 -158.5t-163 -100.5t-193 -35q-90 0 -170 28t-140.5 79t-95.5 125t-35 168z" />
<glyph unicode="'" horiz-adv-x="413" d="M260 1315l16 153h168l-16 -153l-76 -361h-88z" />
<glyph unicode="(" horiz-adv-x="753" d="M209 -8l119 1147q10 98 54 187t114.5 155.5t165 105.5t204.5 39l-16 -168q-68 0 -126 -25.5t-103.5 -68.5t-73 -101.5t-33.5 -123.5l-119 -1147q-6 -66 8.5 -124t49 -101t88 -69t121.5 -26l-17 -168q-111 0 -197 39t-143 105.5t-81.5 156t-14.5 187.5z" />
<glyph unicode=")" horiz-adv-x="753" d="M6 -496l19 168q68 0 126 26t102 69t71.5 101t33.5 124l121 1147q6 66 -9 124t-50 101t-88 68.5t-121 25.5l18 168q111 0 197 -39t142.5 -105.5t82 -155.5t15.5 -187l-121 -1147q-10 -98 -54.5 -187.5t-115 -156t-164.5 -105.5t-205 -39z" />
<glyph unicode="*" horiz-adv-x="937" d="M225 1159l49 113l277 -117l10 313h125l-55 -313l299 117l24 -113l-311 -80l188 -262l-108 -74l-148 283l-204 -283l-97 74l246 262z" />
<glyph unicode="+" horiz-adv-x="1177" d="M233 504l17 158h319l35 331h178l-34 -331h319l-16 -158h-320l-35 -328h-178l35 328h-320z" />
<glyph unicode="," horiz-adv-x="552" d="M104 -238l11 88q66 0 99.5 19.5t53.5 44.5q35 45 39 90q-6 -6 -19.5 -11t-33.5 -5q-53 0 -88 38t-35 93q0 66 47 111.5t119 45.5q68 0 108.5 -50t40.5 -152q0 -154 -92 -233t-250 -79z" />
<glyph unicode="-" horiz-adv-x="602" d="M115 504l16 160h479l-16 -160h-479z" />
<glyph unicode="." horiz-adv-x="522" d="M131 119q0 33 13.5 61.5t35 50t50 33.5t59.5 12q57 0 94 -38.5t37 -92.5q0 -66 -49 -110.5t-113 -44.5q-55 0 -91 38t-36 91z" />
<glyph unicode="/" horiz-adv-x="892" d="M2 -76l928 1733l153 -70l-927 -1732z" />
<glyph unicode="0" horiz-adv-x="1185" d="M150 463l55 508q10 98 54 187t114.5 155.5t165 105.5t206.5 39q111 0 198 -39t143.5 -105.5t82 -155.5t15.5 -187l-54 -508q-10 -98 -54 -186.5t-115.5 -156t-167 -106.5t-207.5 -39q-113 0 -199 40t-142.5 107.5t-81 156t-13.5 184.5zM336 463q-6 -63 8 -121.5 t50 -102.5t89.5 -70t122.5 -26q70 0 128.5 26t103.5 70t72.5 101t33.5 123l55 508q6 68 -10 126t-52 101t-89 67.5t-121 24.5q-70 0 -128 -25.5t-103 -68.5t-73 -101.5t-34 -123.5z" />
<glyph unicode="1" horiz-adv-x="706" d="M174 1047l16 149q96 0 157 13.5t97.5 41t53 72.5t22.5 111h178l-151 -1434h-193l111 1047h-291z" />
<glyph unicode="2" horiz-adv-x="1079" d="M96 0q18 170 58.5 284.5t100.5 193.5t141 133.5t179 103.5q55 27 116 57.5t111 72.5t83 98t33 134q0 104 -60.5 157.5t-165.5 53.5q-123 0 -206 -71.5t-97 -208.5h-186q10 104 55 188t114.5 141.5t156.5 88t184 30.5q86 0 158.5 -24.5t124 -71.5t80 -114.5t28.5 -153.5 q0 -115 -48 -200t-116 -145.5t-143.5 -101.5t-130.5 -70q-96 -51 -158 -93t-99.5 -88t-55 -99t-25.5 -127h682l-19 -168h-895z" />
<glyph unicode="3" horiz-adv-x="1144" d="M115 453h186q-6 -76 12.5 -133.5t57.5 -96.5t92 -58.5t117 -19.5q70 0 127 22.5t97 62.5t62.5 92.5t22.5 113.5q0 98 -62.5 164t-203.5 66h-103l19 165h102q78 0 132 20.5t89 55.5t50.5 80t15.5 94q0 106 -62.5 156.5t-169.5 50.5q-135 0 -206.5 -70.5t-83.5 -189.5h-189 q10 98 52 177t107.5 135.5t149.5 86t181 29.5q86 0 160.5 -24.5t129 -70.5t86 -113.5t31.5 -151.5q0 -133 -73.5 -224.5t-184.5 -123.5q104 -35 162.5 -112t58.5 -198q0 -102 -42 -187t-114.5 -145.5t-167 -94.5t-198.5 -34q-100 0 -186 32t-146.5 93.5t-90.5 149.5t-17 201 z" />
<glyph unicode="4" horiz-adv-x="1130" d="M188 461l103 973h186l-84 -805h346l45 442h187l-45 -442h215l-19 -168h-215l-49 -461h-186l49 461h-533z" />
<glyph unicode="5" horiz-adv-x="1224" d="M184 465h187q-6 -66 9 -123t50 -101t88 -70t123 -26q74 0 136.5 29t107.5 78t69.5 112.5t24.5 133.5q0 59 -18.5 111.5t-53.5 90t-86 60t-116 22.5q-90 0 -163 -43t-122 -129h-191l86 824h844l-16 -168h-676l-51 -480q55 84 152.5 124t195.5 40q96 0 172 -33.5t128 -92 t78.5 -137.5t26.5 -167q0 -111 -41 -209t-112.5 -171.5t-172 -118t-218.5 -44.5q-113 0 -200 39t-143.5 106.5t-82 156t-15.5 186.5z" />
<glyph unicode="6" horiz-adv-x="1138" d="M121 418q0 98 31.5 179t85.5 153l499 684h215l-381 -504q25 16 52.5 20t48.5 4q98 0 179 -34.5t138.5 -95t88 -141.5t30.5 -173q0 -106 -41 -202.5t-112.5 -170.5t-172 -117t-217.5 -43q-106 0 -189 36t-139.5 95.5t-86 139.5t-29.5 170zM307 434q0 -59 18.5 -111.5 t53.5 -92.5t86 -62.5t117 -22.5q74 0 135 29t106 77t71 111.5t26 135.5q0 59 -18.5 111.5t-54.5 91t-87 61t-117 22.5q-74 0 -135.5 -28.5t-105.5 -76.5t-69.5 -111.5t-25.5 -133.5z" />
<glyph unicode="7" horiz-adv-x="956" d="M131 0l703 1266h-623l18 168h889l-788 -1434h-199z" />
<glyph unicode="8" horiz-adv-x="1187" d="M152 365q0 61 17 121.5t52 112.5t86 92t121 59q-94 35 -135 110.5t-41 165.5q0 88 35 166t99.5 136t155.5 93t201 35q100 0 177 -28.5t129.5 -78t80 -115t27.5 -140.5q0 -53 -14.5 -105.5t-44 -98.5t-74.5 -83t-109 -57q53 -16 91 -48t63 -73t37 -90.5t12 -98.5 q0 -92 -38 -176t-106.5 -147.5t-165.5 -101.5t-216 -38q-106 0 -188 31t-138.5 83t-85 123t-28.5 151zM338 383q0 -100 70.5 -169t201.5 -69q72 0 131.5 22.5t101.5 60.5t65.5 89.5t23.5 108.5q0 49 -17.5 91t-51.5 75t-85 51.5t-119 18.5q-74 0 -133 -23t-101 -60.5 t-64.5 -89t-22.5 -106.5zM440 1028q0 -92 61.5 -153.5t178.5 -61.5q66 0 119 20.5t90 56.5t57.5 82t20.5 99q0 92 -61.5 154.5t-178.5 62.5q-66 0 -118 -20.5t-90 -56t-58.5 -83t-20.5 -100.5z" />
<glyph unicode="9" horiz-adv-x="1138" d="M180 922q0 106 41 203.5t113 171t172 116.5t217 43q104 0 187 -35t140.5 -95t87 -140t29.5 -170q0 -98 -32.5 -179t-85.5 -153l-498 -684h-215l377 500q-18 -18 -80 -19q-102 0 -185 33t-142.5 92.5t-92.5 139t-33 176.5zM369 936q0 -59 18.5 -111.5t54 -91.5t86 -61.5 t115.5 -22.5q74 0 136.5 29t106.5 77t69.5 111.5t25.5 134.5q0 59 -18.5 111.5t-53.5 91.5t-85.5 61.5t-116.5 22.5q-74 0 -135.5 -28.5t-106.5 -76.5t-70.5 -112.5t-25.5 -134.5z" />
<glyph unicode=":" horiz-adv-x="522" d="M131 119q0 66 47 111.5t111 45.5q57 0 94 -38.5t37 -92.5q0 -66 -48 -111.5t-112 -45.5q-57 0 -93 39t-36 92zM203 803q0 33 13 61.5t34.5 50t50.5 34t59 12.5q57 0 94.5 -39t37.5 -93q0 -66 -48.5 -110.5t-111.5 -44.5q-55 0 -92 37t-37 92z" />
<glyph unicode=";" horiz-adv-x="538" d="M104 -238l11 88q66 0 99.5 19.5t53.5 44.5q35 45 39 90q-6 -6 -19.5 -11t-33.5 -5q-53 0 -88 38t-35 93q0 66 47 111.5t119 45.5q68 0 108.5 -50t40.5 -152q0 -154 -92 -233t-250 -79zM205 805q0 66 47 111t108 45q57 0 95.5 -38t38.5 -94q0 -66 -49.5 -110.5 t-112.5 -44.5q-55 0 -91 38t-36 93z" />
<glyph unicode="&#x3c;" horiz-adv-x="1177" d="M123 516l14 129l1077 371l-18 -170l-805 -264l750 -267l-19 -168z" />
<glyph unicode="=" horiz-adv-x="1177" d="M211 336l16 160h828l-17 -160h-827zM246 668l16 157h828l-17 -157h-827z" />
<glyph unicode="&#x3e;" horiz-adv-x="1177" d="M86 147l18 168l803 267l-747 264l18 170l1000 -371l-15 -129z" />
<glyph unicode="?" horiz-adv-x="1032" d="M154 1010q10 104 54 188t112.5 141.5t155.5 88t183 30.5q86 0 160 -24.5t126 -71.5t82 -113.5t30 -148.5q0 -86 -29 -150.5t-71 -111.5t-87 -81t-77 -57q-53 -37 -88 -64.5t-57.5 -61t-35 -77.5t-18.5 -112h-180q8 74 23.5 130t41 102.5t63.5 84t93 72.5q31 20 72 48 t76.5 66t61 87t25.5 112q0 100 -62.5 151.5t-166.5 51.5q-127 0 -207 -73.5t-94 -206.5h-186zM328 109q0 68 48 114.5t113 46.5q59 0 99.5 -38.5t40.5 -96.5q0 -33 -14.5 -62.5t-37 -52t-53 -36t-63.5 -13.5q-59 0 -96 41.5t-37 96.5z" />
<glyph unicode="@" horiz-adv-x="1748" d="M92 360q0 197 76 362t209 283.5t312 185t386 66.5q160 0 291 -43t223 -130t142.5 -221t50.5 -316q0 -125 -24.5 -238.5t-75 -201t-126 -138.5t-178.5 -51q-59 0 -102 17.5t-70.5 46t-43 66.5t-21.5 79l4 37q-47 -72 -127 -117t-180 -45q-82 0 -148.5 30.5t-115 83 t-75 121t-26.5 146.5q0 92 36 175t97.5 146.5t143 101.5t176.5 38q104 0 173.5 -45t100.5 -117l14 143h150l-61 -579q-10 -90 17.5 -140.5t86.5 -50.5q51 0 92 37t69.5 101.5t44 150.5t15.5 182q0 158 -41 270.5t-115.5 185.5t-180 106.5t-234.5 33.5q-172 0 -321.5 -56 t-258 -155.5t-171 -237.5t-62.5 -302q0 -127 41 -244t122.5 -205t206.5 -140t295 -52q92 0 203 21.5t227 80.5l43 -119q-135 -72 -259 -95.5t-230 -23.5q-203 0 -353.5 62.5t-250 169t-148.5 245t-49 289.5zM625 393q0 -53 16 -99t48 -81t77 -55.5t104 -20.5 q66 0 121.5 25.5t96 68.5t63.5 100.5t23 119.5q0 53 -16.5 100t-49.5 82t-79 55.5t-103 20.5q-66 0 -121 -26t-95 -69t-62.5 -100t-22.5 -121z" />
<glyph unicode="A" horiz-adv-x="1144" d="M10 0l645 1434h136l344 -1434h-197l-53 219h-582l-96 -219h-197zM379 389h467l-154 739z" />
<glyph unicode="B" horiz-adv-x="1210" d="M160 0l151 1434h490q117 0 193.5 -32t121.5 -82t63.5 -110.5t18.5 -117.5q0 -78 -26.5 -141.5t-68.5 -109.5t-94.5 -75t-103.5 -39q39 -4 80 -24.5t75 -58.5t56.5 -92t22.5 -122q0 -61 -23.5 -137t-80 -140.5t-149.5 -108.5t-235 -44h-491zM365 168h313q76 0 129 24.5 t85 61.5t46 81t14 85q0 37 -11 74.5t-37.5 70.5t-68.5 53.5t-104 20.5h-317zM432 809h307q76 0 128.5 24.5t84 61.5t45 81t13.5 83q0 35 -11.5 71.5t-37 66.5t-69.5 49.5t-110 19.5h-303z" />
<glyph unicode="C" horiz-adv-x="1587" d="M156 647q0 158 57 305.5t164.5 262t260.5 183t341 68.5q143 0 257 -41t193.5 -112.5t124.5 -168.5t52 -212h-197q-8 78 -40 145.5t-88 116.5t-134 76.5t-178 27.5q-141 0 -257 -54t-197 -143t-125 -204t-44 -235q0 -109 35 -204.5t101.5 -167t160.5 -113.5t211 -42 q86 0 164 23.5t141.5 64.5t111.5 97.5t79 121.5h204q-37 -100 -106.5 -187t-162.5 -150.5t-208.5 -100.5t-247.5 -37q-160 0 -285.5 54.5t-211.5 147.5t-131 217t-45 261z" />
<glyph unicode="D" horiz-adv-x="1427" d="M160 0l151 1434h443q166 0 290.5 -55.5t209.5 -145.5t128 -208t43 -243q0 -145 -57 -285.5t-163.5 -251t-259 -178t-343.5 -67.5h-442zM365 168h256q141 0 253.5 52t192.5 136t122 192.5t42 219.5q0 96 -32 186t-94.5 159t-154.5 111t-215 42h-256z" />
<glyph unicode="E" horiz-adv-x="1114" d="M160 0l151 1434h805l-18 -168h-619l-49 -469h619l-19 -168h-618l-47 -461h618l-18 -168h-805z" />
<glyph unicode="F" horiz-adv-x="1101" d="M160 0l151 1434h805l-18 -168h-619l-53 -512h618l-18 -168h-618l-62 -586h-186z" />
<glyph unicode="G" horiz-adv-x="1712" d="M156 637q0 160 59 310.5t166.5 265t257 184t330.5 69.5q125 0 226 -33.5t174 -92t115 -137.5t46 -169h-189q-8 55 -38.5 103.5t-82 84t-119 56t-149.5 20.5q-135 0 -246.5 -54t-191.5 -144t-124 -207t-44 -240q0 -102 31 -195t94.5 -165t158.5 -115t222 -43q106 0 192 31 t151 83t106.5 122.5t60.5 150.5h-338l18 168h691l-19 -168h-153q-31 -119 -94.5 -220t-156.5 -176t-214 -117t-267 -42q-170 0 -295.5 55.5t-209.5 148.5t-126 214t-42 252z" />
<glyph unicode="H" horiz-adv-x="1359" d="M160 0l151 1434h187l-68 -637h668l67 637h187l-152 -1434h-186l65 629h-667l-66 -629h-186z" />
<glyph unicode="I" horiz-adv-x="512" d="M160 0l151 1434h193l-152 -1434h-192z" />
<glyph unicode="J" horiz-adv-x="1097" d="M76 455h186q-2 -25 -2 -48q0 -110 54 -183q67 -89 196 -89t208 87t95 233l102 979h187l-103 -979q-10 -104 -51 -194.5t-106.5 -155t-154.5 -101.5t-195 -37t-188.5 36t-136.5 100.5t-77 154.5q-17 63 -17 135q0 30 3 62z" />
<glyph unicode="K" horiz-adv-x="1208" d="M160 0l151 1434h187l-70 -652l672 652h235l-731 -717l580 -717h-236l-534 651l-68 -651h-186z" />
<glyph unicode="L" horiz-adv-x="870" d="M160 0l151 1434h187l-133 -1266h469l-19 -168h-655z" />
<glyph unicode="M" horiz-adv-x="1662" d="M160 0l151 1434h181l370 -1147l613 1147h180l-152 -1434h-188l104 999l-516 -999h-143l-309 999l-105 -999h-186z" />
<glyph unicode="N" horiz-adv-x="1357" d="M160 0l151 1434h207l529 -1108l116 1108h187l-152 -1434h-207l-528 1108l-117 -1108h-186z" />
<glyph unicode="O" horiz-adv-x="1644" d="M156 645q0 158 59 305.5t166.5 262t258.5 184t333 69.5q162 0 287.5 -55t209.5 -149.5t128 -216t44 -254.5q0 -158 -59 -306.5t-166.5 -263.5t-257.5 -184.5t-332 -69.5q-164 0 -288.5 56.5t-209.5 149.5t-129 216t-44 256zM350 659q0 -102 32 -196t94.5 -167t154.5 -117 t211 -44q133 0 244.5 54.5t191.5 144.5t124 204.5t44 237.5q0 102 -32 196.5t-94.5 167t-154.5 115.5t-211 43q-133 0 -243.5 -54t-190.5 -143t-125 -204t-45 -238z" />
<glyph unicode="P" horiz-adv-x="1220" d="M160 0l151 1434h504q104 0 186 -36t139.5 -96.5t87 -140.5t29.5 -170q0 -106 -39.5 -202.5t-112.5 -170t-173.5 -117.5t-220.5 -44h-318l-47 -457h-186zM412 627h317q76 0 138.5 28.5t107.5 76.5t70.5 111.5t25.5 133.5q0 59 -18.5 111.5t-54 92.5t-87 62.5t-114.5 22.5 h-318z" />
<glyph unicode="Q" horiz-adv-x="1644" d="M156 645q0 158 59 305.5t166.5 262t258.5 184t333 69.5q162 0 287.5 -56t209.5 -149.5t128 -216.5t44 -258q0 -139 -46 -267t-128 -232.5t-195.5 -180t-248.5 -108.5l109 -178l-175 -82l-139 229q-160 0 -283.5 56.5t-208.5 150.5t-128 216t-43 255zM350 659 q0 -102 32 -196t94.5 -167t154.5 -117t211 -44q133 0 244.5 54.5t191.5 144.5t124 204.5t44 237.5q0 102 -32 196.5t-94.5 167t-153.5 115.5t-210 43q-133 0 -244.5 -54t-191.5 -143t-125 -204t-45 -238z" />
<glyph unicode="R" horiz-adv-x="1241" d="M160 0l151 1434h504q104 0 186 -36t139.5 -96.5t87 -140.5t29.5 -170q0 -86 -26.5 -164.5t-74.5 -144.5t-115.5 -117t-151.5 -78l250 -487h-213l-238 457h-295l-47 -457h-186zM412 627h317q76 0 138.5 28.5t107.5 76.5t70.5 111.5t25.5 133.5q0 59 -18.5 111.5t-54 92.5 t-87 62.5t-114.5 22.5h-318z" />
<glyph unicode="S" horiz-adv-x="1169" d="M141 457h187q-3 -25 -3 -48q1 -115 67 -187q80 -88 224 -87q68 0 124.5 19.5t98.5 54.5t65.5 84t23.5 108t-22.5 99.5t-57.5 66t-79 43t-87 29.5q-88 29 -166 59.5t-136 73.5t-92 106.5t-34 155.5q0 98 38 177t103.5 136.5t153.5 88t188 30.5t181 -31.5t135.5 -89 t80.5 -138.5q18 -58 18 -125q0 -26 -3 -54h-186q1 15 1 29q0 41 -8 77q-12 50 -40.5 86.5t-75.5 57t-115 20.5q-59 0 -110.5 -16t-90.5 -47t-60.5 -74t-21.5 -98q0 -51 19.5 -87t52.5 -62.5t77 -45t93 -32.5q86 -29 165 -61t139.5 -78t95 -111.5t34.5 -161.5 q0 -104 -42 -188t-114.5 -144.5t-168 -92.5t-201.5 -32q-111 0 -199 34t-148.5 97.5t-88.5 154.5q-19 63 -19 137q0 33 4 67z" />
<glyph unicode="T" horiz-adv-x="978" d="M158 1266l18 168h930l-19 -168h-372l-133 -1266h-187l133 1266h-370z" />
<glyph unicode="U" horiz-adv-x="1288" d="M195 465l102 969h186l-102 -969q-2 -19 -1 -37q0 -48 10 -92q16 -60 52.5 -105t91 -70.5t123.5 -25.5q70 0 131.5 26.5t107.5 72t74.5 104.5t35.5 127l102 969h186l-102 -969q-10 -102 -55 -192.5t-118 -158t-170 -107.5t-210 -40q-115 0 -202 40t-144 107.5t-83 157.5 q-18 63 -18 133q0 29 3 60z" />
<glyph unicode="V" horiz-adv-x="1153" d="M160 1434h196l254 -1127l490 1127h196l-651 -1434h-135z" />
<glyph unicode="W" horiz-adv-x="1974" d="M164 1434h196l244 -1110l465 1110h141l232 -1110l477 1110h197l-643 -1434h-138l-231 1110l-463 -1110h-139z" />
<glyph unicode="X" horiz-adv-x="1122" d="M20 0l510 717l-358 717h211l270 -555l389 555h213l-512 -717l361 -717h-213l-273 555l-387 -555h-211z" />
<glyph unicode="Y" horiz-adv-x="1210" d="M172 1434h217l350 -670l408 670h205l-873 -1434h-205l349 569z" />
<glyph unicode="Z" d="M29 0l929 1266h-753l18 168h1067l-930 -1266h803l-18 -168h-1116z" />
<glyph unicode="[" horiz-adv-x="686" d="M109 -479l221 2107h403l-16 -160h-225l-189 -1790h225l-16 -157h-403z" />
<glyph unicode="\" horiz-adv-x="892" d="M156 1587l170 70l563 -1733l-170 -69z" />
<glyph unicode="]" horiz-adv-x="686" d="M72 -479l16 157h225l189 1788h-226l17 160h403l-221 -2105h-403z" />
<glyph unicode="^" horiz-adv-x="1306" d="M193 662l555 874h126l379 -874h-200l-265 651l-401 -651h-194z" />
<glyph unicode="_" horiz-adv-x="1146" d="M37 -227l12 125h1024l-12 -125h-1024z" />
<glyph unicode="`" horiz-adv-x="1013" d="M326 1360l100 139l481 -280l-100 -140z" />
<glyph unicode="a" horiz-adv-x="1222" d="M129 420q0 106 41 203.5t111.5 171t166 116.5t203.5 43q113 0 195 -48t121 -136l16 160h176l-96 -930h-176l16 162q-53 -82 -145 -133.5t-209 -51.5q-94 0 -172 36t-133.5 96.5t-85 140.5t-29.5 170zM305 432q0 -61 19.5 -114.5t55.5 -93.5t89 -63.5t121 -23.5 q76 0 139.5 30t109.5 79t71.5 114.5t25.5 137.5q0 61 -19.5 114.5t-55.5 94.5t-88 64.5t-120 23.5q-76 0 -140 -30t-110.5 -80t-72 -115.5t-25.5 -137.5z" />
<glyph unicode="b" horiz-adv-x="1226" d="M160 0l151 1434h178l-69 -664q57 90 149.5 137t200.5 47q94 0 172 -34.5t133 -95t86 -141.5t31 -173q0 -106 -41 -202.5t-111.5 -170.5t-165 -117t-202.5 -43q-115 0 -196 48.5t-122 136.5l-16 -162h-178zM385 432q0 -61 19.5 -114.5t55.5 -93.5t88 -63.5t120 -23.5 q76 0 139 30t109.5 79t72 114.5t25.5 137.5q0 61 -18.5 114.5t-54.5 94.5t-88 64.5t-120 23.5q-76 0 -139.5 -30t-109.5 -80t-72.5 -115.5t-26.5 -137.5z" />
<glyph unicode="c" horiz-adv-x="1083" d="M133 414q0 102 35 199.5t101.5 173t164.5 121.5t228 46q104 0 178.5 -30.5t123 -81.5t70.5 -117q20 -60 19 -122v-11h-179q0 39 -12 76t-39.5 65.5t-70.5 45t-105 16.5q-84 0 -147.5 -31t-105.5 -83t-62.5 -118.5t-20.5 -136.5q0 -59 15.5 -111.5t48.5 -92.5t85 -62.5 t126 -22.5q111 0 171 49.5t91 132.5h178q-18 -74 -58 -137t-100.5 -108t-137.5 -71t-169 -26q-111 0 -191.5 36t-133 96.5t-78 139.5t-25.5 165z" />
<glyph unicode="d" horiz-adv-x="1222" d="M129 420q0 106 41 203.5t111.5 171t166 116.5t203.5 43q113 0 195 -48t121 -136l69 664h176l-149 -1434h-176l16 162q-53 -82 -145 -133.5t-209 -51.5q-94 0 -172 36t-133.5 96.5t-85 140.5t-29.5 170zM305 432q0 -61 19.5 -114.5t55.5 -93.5t89 -63.5t121 -23.5 q76 0 139.5 30t109.5 79t71.5 114.5t25.5 137.5q0 61 -19.5 114.5t-55.5 94.5t-88 64.5t-120 23.5q-76 0 -140 -30t-110.5 -80t-72 -115.5t-25.5 -137.5z" />
<glyph unicode="e" horiz-adv-x="1075" d="M133 412q0 113 36 212t102.5 172.5t158.5 115.5t205 42q92 0 165.5 -28.5t126 -80.5t81 -123t28.5 -155q0 -43 -7 -76.5t-17 -72.5h-705q-1 -14 -1 -28q0 -40 8 -80q12 -52 41.5 -93t80.5 -65.5t129 -24.5q109 0 166 44t86 103h180q-18 -59 -57 -112t-96.5 -94t-133 -66 t-165.5 -25q-104 0 -182 34t-129.5 92.5t-76 137t-24.5 171.5zM324 553h538q2 21 2 41q0 94 -55 152q-67 70 -186 71q-57 0 -107.5 -17.5t-90.5 -51t-66.5 -83t-34.5 -112.5z" />
<glyph unicode="f" horiz-adv-x="710" d="M125 780l16 150h201l16 162q12 127 54.5 197.5t94.5 105.5t105.5 43t87.5 8q55 0 87 -7t51 -18l-17 -151q-23 8 -47 12t-65 4q-25 0 -51.5 -4t-51 -21.5t-43 -52t-24.5 -98.5l-19 -180h266l-16 -150h-266l-82 -780h-178l82 780h-201z" />
<glyph unicode="g" horiz-adv-x="1218" d="M84 -119h180q0 -49 12.5 -94t45 -79t85 -54.5t132.5 -20.5q70 0 128 17.5t103 54.5t73.5 95.5t37.5 140.5l22 221q-59 -90 -151.5 -137.5t-200.5 -47.5q-94 0 -172 36t-133.5 96.5t-86 141.5t-30.5 171q0 106 41 202.5t111.5 170t166 116.5t203.5 43q117 0 198 -49 t118 -135l18 160h176l-104 -989q-12 -125 -57.5 -213t-114 -144.5t-159.5 -82t-198 -25.5q-127 0 -214 32.5t-139 89t-73 130.5q-19 61 -19 128q0 12 1 25zM307 432q0 -61 18.5 -114.5t55.5 -93.5t89 -63.5t120 -23.5q76 0 139.5 30t109.5 79t72.5 114.5t26.5 137.5 q0 61 -19.5 114.5t-55.5 94.5t-88 64.5t-120 23.5q-76 0 -140 -30t-110.5 -80t-72 -115.5t-25.5 -137.5z" />
<glyph unicode="h" d="M160 0l151 1434h178l-71 -668q51 86 140 137t212 51q86 0 153.5 -28.5t108.5 -94.5q35 -55 43 -123q4 -30 4 -66q0 -43 -6 -93l-57 -549h-178l51 494q3 32 3 62t-3 58q-6 56 -29.5 96t-65.5 63.5t-106 23.5q-72 0 -125 -28t-90 -72t-57.5 -101t-26.5 -117l-51 -479h-178z " />
<glyph unicode="i" horiz-adv-x="497" d="M160 0l98 930h178l-98 -930h-178zM240 1270q0 66 47 111.5t110 45.5q57 0 94 -38.5t37 -94.5q0 -63 -48 -108t-111 -45q-55 0 -92 38t-37 91z" />
<glyph unicode="j" horiz-adv-x="497" d="M-78 -498l17 158q33 -8 50 -10t29 -2q55 0 83 33.5t34 95.5l121 1153h180l-125 -1180q-16 -147 -86.5 -209.5t-169.5 -62.5q-35 0 -72.5 7t-60.5 17zM240 1270q0 66 47 111.5t110 45.5q57 0 94 -38.5t37 -94.5q0 -63 -47 -108t-112 -45q-59 0 -94 38t-35 91z" />
<glyph unicode="k" horiz-adv-x="976" d="M160 0l151 1434h178l-98 -928l434 424h226l-473 -465l374 -465h-225l-344 422l-45 -422h-178z" />
<glyph unicode="l" horiz-adv-x="497" d="M160 0l151 1434h178l-151 -1434h-178z" />
<glyph unicode="m" horiz-adv-x="1687" d="M160 0l98 930h178l-18 -166q16 35 42.5 69.5t64.5 61.5t88.5 43t111.5 16q111 0 180.5 -53t85.5 -145q18 37 47 72.5t71 63.5t95 45t121 17q82 0 139.5 -26.5t91.5 -75.5q32 -48 44 -116q7 -40 7 -84q0 -31 -3 -64l-62 -588h-178l55 535q3 32 3 60q0 85 -32 135 q-42 66 -139 67q-104 0 -174.5 -80t-87.5 -244l-49 -473h-178l55 524q4 38 4 71q0 90 -32 137q-44 65 -136 65q-104 0 -177 -80t-89 -244l-49 -473h-178z" />
<glyph unicode="n" d="M160 0l98 930h178l-18 -164q51 86 140 137t212 51q86 0 153.5 -28.5t108.5 -94.5q35 -55 43 -123q4 -30 4 -66q0 -43 -6 -93l-57 -549h-178l51 494q3 32 3 62t-3 58q-6 56 -29.5 96t-65.5 63.5t-106 23.5q-72 0 -125 -28t-90 -72t-57.5 -101t-26.5 -117l-51 -479h-178z " />
<glyph unicode="o" horiz-adv-x="1146" d="M129 420q0 106 40 202.5t112.5 170t172 117.5t216.5 44q104 0 187 -34.5t139.5 -95t87 -141.5t30.5 -171q0 -106 -41 -203.5t-112.5 -171.5t-172 -117t-217.5 -43q-104 0 -187 36t-139.5 96.5t-86 140.5t-29.5 170zM305 432q0 -61 19.5 -114.5t55.5 -93.5t89 -63.5 t121 -23.5q76 0 139.5 30t109.5 79t71.5 114.5t25.5 137.5q0 61 -19.5 114.5t-55.5 94.5t-88 64.5t-120 23.5q-76 0 -140 -30t-110.5 -80t-72 -115.5t-25.5 -137.5z" />
<glyph unicode="p" horiz-adv-x="1226" d="M106 -504l152 1434h178l-18 -160q59 90 151.5 137t200.5 47q94 0 172 -34.5t133 -95t86 -141.5t31 -173q0 -106 -41 -202.5t-111.5 -170.5t-165 -117t-202.5 -43q-115 0 -197 48.5t-121 136.5l-69 -666h-179zM385 432q0 -61 19.5 -114.5t55.5 -93.5t88 -63.5t120 -23.5 q76 0 139 30t109.5 79t72 114.5t25.5 137.5q0 61 -18.5 114.5t-54.5 94.5t-88 64.5t-120 23.5q-76 0 -139.5 -30t-109.5 -80t-72.5 -115.5t-26.5 -137.5z" />
<glyph unicode="q" horiz-adv-x="1226" d="M131 422q0 106 41 202.5t111.5 170t166 116.5t203.5 43q115 0 196 -48t120 -136l16 160h178l-149 -1434h-178l69 666q-59 -90 -151 -137.5t-201 -47.5q-96 0 -174 36t-133.5 96.5t-85 141.5t-29.5 171zM309 432q0 -61 18.5 -114.5t55.5 -93.5t89 -63.5t120 -23.5 q76 0 139.5 30t109.5 79t71.5 114.5t25.5 137.5q0 61 -19.5 114.5t-55.5 94.5t-88 64.5t-120 23.5q-76 0 -139 -30t-109.5 -80t-72 -115.5t-25.5 -137.5z" />
<glyph unicode="r" horiz-adv-x="747" d="M160 0l98 930h178l-20 -182q45 84 136 140t196 56q51 0 86 -14l-19 -164q-27 6 -44 8t-36 2q-162 0 -250 -100.5t-104 -267.5l-43 -408h-178z" />
<glyph unicode="s" horiz-adv-x="925" d="M117 313h174q-2 -18 -2 -35q0 -79 48 -115q58 -44 152 -44q88 0 144.5 34.5t56.5 106.5q0 37 -17.5 58.5t-51 38t-87 33t-122.5 40.5q-51 16 -93.5 33.5t-72 44.5t-46 62.5t-16.5 88.5q0 72 31 127.5t81 92t116.5 56t140.5 19.5q80 0 144.5 -22.5t108.5 -63.5t64 -99 q16 -45 16 -97q0 -15 -1 -31h-172q2 15 2 29q0 57 -33 94q-41 47 -137 47q-80 0 -134.5 -36t-54.5 -101q0 -31 13.5 -50.5t44 -36t78.5 -31.5t116 -38q57 -18 104.5 -37.5t80 -46t50 -63.5t17.5 -92q0 -74 -30.5 -130.5t-84 -94.5t-124 -57.5t-148.5 -19.5 q-82 0 -150.5 20.5t-117.5 62.5t-73 104q-18 47 -17 107q0 20 2 42z" />
<glyph unicode="t" horiz-adv-x="696" d="M123 780l16 150h172l33 313h178l-33 -313h242l-16 -150h-242l-45 -428q-3 -31 -3 -57q0 -31 4 -51q7 -40 25.5 -61t45 -27t61.5 -6q29 0 65 2t56 6l-16 -158q-27 -4 -72 -8t-92 -4q-43 0 -92.5 8t-90 40t-63.5 98q-15 42 -15 103q0 35 5 76l49 467h-172z" />
<glyph unicode="u" d="M181 213q-4 32 -4 72q0 44 5 96l58 549h178l-51 -492q-3 -33 -3 -63.5t3 -57.5q6 -55 29.5 -96t64.5 -63.5t104 -22.5q70 0 123 26.5t91 70.5t59.5 101.5t27.5 119.5l49 477h181l-99 -930h-178l19 166q-51 -86 -140.5 -137.5t-212.5 -51.5q-88 0 -155.5 30t-108.5 91 q-31 47 -40 115z" />
<glyph unicode="v" horiz-adv-x="987" d="M106 930h193l219 -676l367 676h192l-524 -930h-123z" />
<glyph unicode="w" horiz-adv-x="1503" d="M106 930h191l162 -656l303 656h176l162 -656l303 656h190l-458 -930h-123l-183 735l-337 -735h-123z" />
<glyph unicode="x" horiz-adv-x="901" d="M33 0l364 469l-262 461h205l174 -324l244 324h205l-361 -461l266 -469h-204l-179 330l-247 -330h-205z" />
<glyph unicode="y" horiz-adv-x="1173" d="M131 -121h180v-16q0 -111 53 -171q56 -65 187 -65q55 0 102 13.5t84 45t61.5 85t32.5 133.5l27 262q-51 -86 -138 -137.5t-212 -51.5q-100 0 -164.5 33t-99.5 86t-42 122q-3 28 -3 62q0 48 6 107l57 543h178l-51 -488q-3 -37 -3 -71q0 -28 2 -53q5 -56 27.5 -97 t64.5 -63.5t108 -22.5q72 0 126 26.5t91 72t57.5 102.5t26.5 117l49 477h180l-108 -1026q-23 -223 -148 -325.5t-332 -102.5q-217 0 -316 104q-85 90 -85 247q0 25 2 52z" />
<glyph unicode="z" horiz-adv-x="888" d="M49 0l580 772h-482l17 158h782l-579 -770h499l-16 -160h-801z" />
<glyph unicode="{" horiz-adv-x="860" d="M188 475l17 148q25 0 58.5 10t64 31.5t54.5 55.5t30 83l55 538q8 72 39 125.5t75 89t96 53t101 17.5h135l-14 -135h-94q-78 0 -116 -53.5t-46 -122.5l-55 -535q-6 -61 -32 -102t-58.5 -67.5t-67.5 -41t-59 -18.5q25 -6 56.5 -19.5t58 -41t43 -72.5t8.5 -115l-50 -471 q-4 -35 1.5 -66.5t19.5 -56t39.5 -39t64.5 -14.5h95l-15 -135h-135q-49 0 -97 17.5t-85 52t-56.5 89t-11.5 125.5l49 476q6 53 -10 90t-43 60.5t-58.5 33.5t-56.5 10z" />
<glyph unicode="|" horiz-adv-x="497" d="M123 -479l221 2105h154l-222 -2105h-153z" />
<glyph unicode="}" horiz-adv-x="860" d="M68 -479l14 135h92q78 0 116 54t46 122l49 471q6 68 31.5 113t58.5 73.5t68 42t61 19.5q-25 4 -56.5 18.5t-58 41t-43 67.5t-10.5 102l56 535q8 70 -21 123t-104 53h-93l15 135h135q49 0 97 -17.5t85 -53t56.5 -89t11.5 -125.5l-56 -538q-6 -49 11.5 -83t44 -55.5 t58.5 -31.5t56 -10l-16 -148q-25 0 -58.5 -10t-65.5 -33.5t-55.5 -60.5t-29.5 -90l-49 -476q-8 -72 -39 -126t-75 -88.5t-96 -52t-101 -17.5h-135z" />
<glyph unicode="~" horiz-adv-x="1060" d="M121 438l16 158q55 61 117.5 86t116.5 25q53 0 112.5 -19.5t118.5 -46.5q61 -27 115.5 -50.5t105.5 -23.5q59 0 121 35t109 78l-17 -156q-55 -61 -118.5 -88.5t-122.5 -27.5q-55 0 -105.5 20.5t-109.5 50.5q-51 27 -109.5 47.5t-116.5 20.5q-72 0 -128 -32t-105 -77z" />
<glyph unicode="&#xa1;" horiz-adv-x="606" d="M156 -504l104 1000h195l-105 -1000h-194zM246 801q0 33 13 61.5t35.5 50t51.5 33.5t60 12q55 0 93 -37.5t38 -93.5q0 -66 -49.5 -111.5t-112.5 -45.5q-55 0 -92 39t-37 92z" />
<glyph unicode="&#xa2;" horiz-adv-x="1155" d="M180 592q0 94 31 185t89 165t141 124t190 62l24 220h136l-25 -220q92 -10 156.5 -43.5t103.5 -83t56.5 -110t15.5 -121.5h-178q0 86 -53.5 144.5t-172.5 58.5q-84 0 -147.5 -31t-105.5 -83t-62.5 -118.5t-20.5 -136.5q0 -59 15.5 -111.5t48.5 -91.5t85 -62.5t126 -23.5 q111 0 171 49.5t91 133.5h178q-35 -133 -136 -227.5t-271 -112.5l-25 -219h-135l24 221q-88 10 -153.5 50t-109.5 98.5t-65.5 131t-21.5 152.5z" />
<glyph unicode="&#xa3;" horiz-adv-x="1204" d="M127 0l14 141q35 35 58.5 89.5t40.5 140.5q6 25 14 65.5t14 86.5t12.5 91t10.5 74h-139l14 137h141l23 224q8 90 52 164.5t110.5 129t151.5 84t177 29.5q98 0 178 -33.5t133.5 -93t78 -141.5t14.5 -180h-187q12 121 -46 199.5t-193 78.5q-111 0 -185 -55.5t-94 -155.5 q-2 -8 -5 -34.5t-6 -62.5t-7 -77t-8 -74h340l-13 -135h-340q-16 -115 -27.5 -197.5t-17.5 -111.5q-18 -96 -36.5 -142t-43.5 -73h666l-18 -168h-877z" />
<glyph unicode="&#xa4;" horiz-adv-x="1531" d="M231 334l154 139q-31 49 -46 111.5t-15 128.5q0 92 30.5 175t89.5 154l-122 140l122 112l123 -139q63 43 138 67.5t161 24.5t157 -24.5t124 -65.5l151 137l103 -112l-154 -138q31 -51 47.5 -114.5t16.5 -128.5q0 -92 -32 -175t-91 -155l121 -137l-123 -113l-123 137 q-63 -41 -138 -64.5t-161 -23.5t-155.5 23.5t-123.5 64.5l-153 -137zM504 725q0 -61 18.5 -114.5t54 -93.5t87.5 -63.5t120 -23.5q76 0 139.5 29.5t109.5 79t73 115t27 137.5q0 61 -19.5 114t-55.5 94t-88 64.5t-120 23.5q-76 0 -139.5 -29.5t-109.5 -79.5t-71.5 -115.5 t-25.5 -137.5z" />
<glyph unicode="&#xa5;" horiz-adv-x="1214" d="M106 1434h218l366 -676l504 676h215l-618 -832h299l-15 -135h-332l-16 -160h332l-15 -135h-331l-19 -172h-170l19 172h-326l14 135h326l16 160h-325l14 135h293z" />
<glyph unicode="&#xa6;" horiz-adv-x="497" d="M121 -479l100 952h156l-101 -952h-155zM242 672l100 954h156l-101 -954h-155z" />
<glyph unicode="&#xa7;" horiz-adv-x="1187" d="M113 -6h188q-10 -117 55.5 -192.5t206.5 -75.5q53 0 103.5 13t89.5 38.5t62.5 66.5t23.5 97q0 90 -66.5 138t-191.5 85q-92 29 -172 59.5t-138.5 72.5t-92.5 98.5t-34 135.5q0 119 73 209t196 123q-127 86 -127 254q0 92 41 166t108.5 125t155.5 78.5t184 27.5 q104 0 185 -31.5t134.5 -88t78 -132t16.5 -163.5h-188q10 113 -52.5 185.5t-193.5 72.5q-53 0 -103.5 -13.5t-89.5 -41t-62.5 -68.5t-23.5 -96q0 -51 20.5 -86t54.5 -59.5t79 -42t92 -31.5q80 -25 159 -54.5t140 -70.5t99 -98.5t38 -137.5q0 -66 -23.5 -123t-62.5 -102 t-86 -76t-94 -39q137 -86 137 -254q0 -94 -40 -166.5t-107.5 -123t-155.5 -77t-184 -26.5q-104 0 -188.5 30.5t-141.5 86t-85 133.5t-17 174zM340 555q0 -61 38 -100t116 -72q18 -10 49.5 -22.5t66.5 -23.5t68 -21.5t53 -16.5q47 2 90 20.5t77 49t53.5 70.5t19.5 87 q0 63 -37 98t-109 66q-16 10 -44.5 21.5t-63.5 24t-71 22.5t-66 20q-53 -2 -97.5 -21.5t-76 -50t-49 -69.5t-17.5 -82z" />
<glyph unicode="&#xa8;" horiz-adv-x="1138" d="M322 1303q0 31 12 58.5t33.5 48t49 32.5t58.5 12q53 0 88 -37t35 -90q0 -61 -46 -104t-106 -43q-53 0 -88.5 35t-35.5 88zM793 1303q0 63 45 107t106 44q53 0 89 -37t36 -90q0 -61 -46 -104t-108 -43q-53 0 -87.5 35t-34.5 88z" />
<glyph unicode="&#xa9;" horiz-adv-x="1650" d="M158 643q0 158 59 306.5t168 264t258.5 185t331.5 69.5q162 0 288 -56t209.5 -149.5t128 -216t44.5 -255.5q0 -158 -59.5 -307.5t-167 -264.5t-258.5 -184.5t-331 -69.5q-164 0 -288.5 56.5t-209.5 149.5t-129 216t-44 256zM303 653q0 -113 35 -216t103.5 -182t169 -126 t229.5 -47q147 0 268 59.5t208 157.5t135 224t48 259q0 113 -34.5 215.5t-102.5 181t-168 126t-229 47.5q-147 0 -268.5 -59.5t-209.5 -157t-136 -223.5t-48 -259zM487 676q0 88 33 173t93.5 149.5t146.5 104.5t194 40q160 0 251 -85t102 -220h-125q-6 39 -23.5 74.5 t-48.5 62t-74 43t-98 16.5q-76 0 -137.5 -29.5t-104.5 -77.5t-65.5 -110.5t-22.5 -128.5q0 -59 18.5 -110.5t53.5 -91.5t85 -62.5t116 -22.5q96 0 164.5 46.5t103.5 111.5h129q-23 -57 -61.5 -105t-92 -84t-119 -56.5t-139.5 -20.5q-90 0 -160.5 30.5t-118.5 83t-74 122 t-26 147.5z" />
<glyph unicode="&#xaa;" horiz-adv-x="1222" d="M129 420q0 106 41 203.5t111.5 171t166 116.5t203.5 43q113 0 195 -48t121 -136l16 160h176l-96 -930h-176l16 162q-53 -82 -145 -133.5t-209 -51.5q-94 0 -172 36t-133.5 96.5t-85 140.5t-29.5 170zM305 432q0 -61 19.5 -114.5t55.5 -93.5t89 -63.5t121 -23.5 q76 0 139.5 30t109.5 79t71.5 114.5t25.5 137.5q0 61 -19.5 114.5t-55.5 94.5t-88 64.5t-120 23.5q-76 0 -140 -30t-110.5 -80t-72 -115.5t-25.5 -137.5z" />
<glyph unicode="&#xab;" horiz-adv-x="966" d="M139 543l13 108l436 342l-19 -176l-280 -221l233 -221l-18 -174zM541 543l12 108l436 342l-18 -176l-281 -221l234 -221l-19 -174z" />
<glyph unicode="&#xac;" horiz-adv-x="1177" d="M242 623l16 159h827l-49 -465h-178l33 306h-649z" />
<glyph unicode="&#xad;" horiz-adv-x="602" d="M121 563l4 41h479l-4 -41h-479z" />
<glyph unicode="&#xae;" horiz-adv-x="1654" d="M158 643q0 158 59 306.5t168 264t259.5 185t332.5 69.5q164 0 289 -56t210 -149.5t129 -216t44 -255.5q0 -158 -59.5 -307.5t-167 -264.5t-258.5 -184.5t-333 -69.5q-164 0 -289.5 56.5t-210.5 149.5t-129 216t-44 256zM303 653q0 -113 35 -216t103.5 -182t169 -126 t231.5 -47q147 0 269 59.5t209 157.5t135 224t48 259q0 113 -34.5 215.5t-102.5 181t-168 126t-231 47.5q-147 0 -269.5 -59.5t-210.5 -157t-136 -223.5t-48 -259zM596 324l88 833h324q59 0 107 -20.5t81 -55t50.5 -82t17.5 -100.5q0 -100 -58.5 -179t-156.5 -112l147 -284 h-145l-138 266h-159l-29 -266h-129zM764 702h182q80 0 130 56.5t50 130.5q0 63 -37.5 109t-105.5 46h-182z" />
<glyph unicode="&#xaf;" horiz-adv-x="1110" d="M344 1481l16 159h734l-17 -159h-733z" />
<glyph unicode="&#xb0;" horiz-adv-x="673" d="M164 1149q0 66 26.5 124t70.5 101t102.5 68.5t123.5 25.5q57 0 106.5 -20.5t85.5 -56t55.5 -85t19.5 -104.5q0 -66 -27 -124t-71 -101t-103 -68.5t-123 -25.5q-59 0 -107.5 20.5t-84 56t-55 85t-19.5 104.5zM293 1161q0 -63 42 -107t107 -44q37 0 70 14t57.5 38.5 t40 57.5t15.5 70q0 63 -41 108t-107 45q-37 0 -69.5 -15t-58 -39.5t-41 -57.5t-15.5 -70z" />
<glyph unicode="&#xb1;" horiz-adv-x="1177" d="M186 49l17 160h817l-16 -160h-818zM262 776l19 160h319l33 330h178l-33 -330h320l-19 -160h-319l-35 -327h-178l35 327h-320z" />
<glyph unicode="&#xb2;" horiz-adv-x="757" d="M180 645q10 100 34 164.5t57.5 109t76.5 73t94 55.5q37 18 71 36.5t60.5 40t43 49t16.5 64.5q0 49 -29 73.5t-76 24.5q-55 0 -95 -33.5t-48 -103.5h-145q12 109 91 179.5t208 70.5q100 0 168.5 -50t68.5 -155q0 -59 -22.5 -102t-57 -76t-75.5 -57.5t-80 -44.5 q-49 -27 -83 -47.5t-53.5 -42t-29.5 -47t-15 -60.5h367l-12 -121h-535z" />
<glyph unicode="&#xb3;" horiz-adv-x="782" d="M193 897h145q-8 -70 28.5 -108.5t100.5 -38.5q68 0 105.5 39.5t37.5 99.5q0 49 -30.5 79.5t-96.5 30.5h-67l12 115h68q78 0 109.5 37t31.5 86q0 53 -31 75.5t-78 22.5q-66 0 -98.5 -34.5t-38.5 -94.5h-145q10 100 82.5 171t206.5 71q106 0 176.5 -50t70.5 -147 q0 -76 -42 -128t-105 -68q53 -16 87 -60.5t34 -113.5q0 -59 -24.5 -105.5t-66.5 -78t-98.5 -49t-117.5 -17.5q-133 0 -201 73.5t-55 192.5z" />
<glyph unicode="&#xb4;" horiz-adv-x="1013" d="M252 1219l539 280l71 -139l-538 -281z" />
<glyph unicode="&#xb5;" horiz-adv-x="1177" d="M106 -504l152 1434h176l-51 -492q-6 -66 0 -121t30.5 -95t66.5 -63.5t106 -23.5q68 0 120 25.5t90 68.5t60.5 100.5t28.5 123.5l49 477h180l-98 -930h-178l16 166q-47 -84 -137 -136.5t-207 -52.5q-111 0 -168 58l-57 -539h-179z" />
<glyph unicode="&#xb6;" horiz-adv-x="1337" d="M139 1036q0 94 28 163t74 117t105.5 77.5t120.5 46t120.5 22.5t106.5 6h654l-15 -147h-108l-172 -1624h-170l170 1622h-275l-170 -1622h-168l103 977q-88 0 -162 20.5t-128 64.5t-84 112.5t-30 164.5z" />
<glyph unicode="&#xb7;" horiz-adv-x="522" d="M184 627q0 66 47.5 111.5t110.5 45.5q57 0 94 -38.5t37 -94.5q0 -63 -48 -108t-112 -45q-55 0 -92 38t-37 91z" />
<glyph unicode="&#xb8;" horiz-adv-x="978" d="M266 -301h109q2 -37 23.5 -59.5t60.5 -22.5q47 0 76.5 30.5t29.5 78.5q0 39 -22.5 61.5t-63.5 22.5q-23 0 -44 -10.5t-40 -41.5h-94l25 242h118l-14 -145q16 20 40 30.5t52 10.5q59 0 106.5 -43t47.5 -117q0 -39 -15.5 -78t-44 -69.5t-68.5 -49t-89 -18.5q-23 0 -54.5 6 t-62.5 24.5t-52.5 53.5t-23.5 94z" />
<glyph unicode="&#xb9;" horiz-adv-x="548" d="M221 1192l10 106q111 0 149 32t44 104h131l-82 -789h-149l57 547h-160z" />
<glyph unicode="&#xba;" horiz-adv-x="1146" d="M129 420q0 106 40 202.5t112.5 170t172 117.5t216.5 44q104 0 187 -34.5t139.5 -95t87 -141.5t30.5 -171q0 -106 -41 -203.5t-112.5 -171.5t-172 -117t-217.5 -43q-104 0 -187 36t-139.5 96.5t-86 140.5t-29.5 170zM305 432q0 -61 19.5 -114.5t55.5 -93.5t89 -63.5 t121 -23.5q76 0 139.5 30t109.5 79t71.5 114.5t25.5 137.5q0 61 -19.5 114.5t-55.5 94.5t-88 64.5t-120 23.5q-76 0 -140 -30t-110.5 -80t-72 -115.5t-25.5 -137.5z" />
<glyph unicode="&#xbb;" horiz-adv-x="966" d="M102 201l19 174l280 221l-233 221l18 176l365 -342l-10 -108zM504 201l18 174l281 221l-234 221l19 176l364 -342l-10 -108z" />
<glyph unicode="&#xbc;" horiz-adv-x="1875" d="M262 1192l10 106q109 0 148 32t45 104h129l-82 -789h-147l57 547h-160zM311 -37l1024 1589l133 -79l-1022 -1590zM1161 238l58 550h145l-45 -428h166l24 230h146l-25 -230h109l-13 -122h-108l-25 -238h-145l25 238h-312z" />
<glyph unicode="&#xbd;" horiz-adv-x="1875" d="M262 1192l10 106q109 0 148 32t45 104h129l-82 -789h-147l57 547h-160zM311 -37l1024 1589l133 -79l-1022 -1590zM1133 0q10 94 31.5 159.5t54 109.5t75.5 75t99 57q80 39 135 79t55 112q0 49 -27.5 73.5t-76.5 24.5q-57 0 -95 -33.5t-47 -103.5h-145q12 109 90 179.5 t207 70.5q104 0 172 -50.5t68 -154.5q0 -59 -23 -102t-57.5 -76t-76.5 -57.5t-81 -45.5q-49 -25 -82 -45t-53.5 -41.5t-30.5 -47t-14 -62.5h366l-12 -121h-532z" />
<glyph unicode="&#xbe;" horiz-adv-x="1875" d="M188 897h148q-8 -70 27.5 -108.5t99.5 -38.5q68 0 105.5 39.5t37.5 99.5q0 49 -29.5 79.5t-95.5 30.5h-69l12 115h70q76 0 107.5 37t31.5 86q0 51 -29 74.5t-80 23.5q-66 0 -98.5 -34.5t-38.5 -94.5h-145q10 104 84.5 173t203.5 69q106 0 177 -50t71 -147q0 -76 -42 -128 t-105 -68q59 -16 90 -61.5t31 -110.5q0 -59 -25 -106.5t-67 -79t-97 -49t-117 -17.5q-133 0 -201.5 73.5t-56.5 192.5zM328 -37l1026 1589l135 -79l-1026 -1590zM1161 238l60 550h145l-45 -428h166l22 230h146l-23 -230h109l-15 -122h-108l-25 -238h-145l25 238h-312z" />
<glyph unicode="&#xbf;" horiz-adv-x="1032" d="M74 -170q0 86 28.5 150.5t70.5 112.5t87 81t78 55q53 37 88 67t57.5 62.5t34.5 75.5t19 111h180q-10 -76 -24.5 -132.5t-40 -101.5t-63.5 -81.5t-93 -73.5q-29 -20 -70 -47t-78 -65t-62.5 -87t-25.5 -115q0 -100 62.5 -151t166.5 -51q127 0 207 74.5t95 205.5h186 q-10 -104 -54 -188t-113 -141.5t-156 -88t-183 -30.5q-86 0 -159.5 24.5t-126 71.5t-82 112.5t-29.5 149.5zM502 797q0 33 13 62.5t36.5 51t53.5 34.5t63 13q61 0 98 -40t37 -95q0 -33 -13.5 -62.5t-35 -52t-51 -36t-62.5 -13.5q-59 0 -99 40t-40 98z" />
<glyph unicode="&#xc0;" horiz-adv-x="1144" d="M10 0l645 1434h136l344 -1434h-197l-53 219h-582l-96 -219h-197zM379 389h467l-154 739zM500 1815l100 141l481 -281l-100 -141z" />
<glyph unicode="&#xc1;" horiz-adv-x="1144" d="M10 0l645 1434h136l344 -1434h-197l-53 219h-582l-96 -219h-197zM379 389h467l-154 739zM449 1645l540 280l70 -139l-541 -281z" />
<glyph unicode="&#xc2;" horiz-adv-x="1144" d="M10 0l645 1434h136l344 -1434h-197l-53 219h-582l-96 -219h-197zM379 389h467l-154 739zM383 1647l395 313l332 -313l-115 -115l-235 233l-285 -233z" />
<glyph unicode="&#xc3;" horiz-adv-x="1144" d="M10 0l645 1434h136l344 -1434h-197l-53 219h-582l-96 -219h-197zM367 1706q55 86 125.5 123t140.5 37q51 0 87 -15.5t65.5 -35t56 -35t59.5 -15.5q47 0 80 32t55 69l123 -68q-59 -92 -133 -133t-145 -41q-49 0 -86 15.5t-67 35t-57.5 34.5t-60.5 15q-41 0 -72.5 -28.5 t-58.5 -71.5zM379 389h467l-154 739z" />
<glyph unicode="&#xc4;" horiz-adv-x="1144" d="M10 0l645 1434h136l344 -1434h-197l-53 219h-582l-96 -219h-197zM377 1714q0 66 47 112t111 46q57 0 94 -39t37 -92q0 -66 -48.5 -111t-111.5 -45q-57 0 -93 38t-36 91zM379 389h467l-154 739zM846 1714q0 33 13 61.5t34.5 50t50.5 34t60 12.5q57 0 94 -39t37 -94 q0 -63 -47.5 -108.5t-110.5 -45.5q-59 0 -95 38t-36 91z" />
<glyph unicode="&#xc5;" horiz-adv-x="1144" d="M10 0l645 1434h136l344 -1434h-197l-53 219h-582l-96 -219h-197zM379 389h467l-154 739zM504 1726q0 55 23.5 104.5t61.5 87.5t88 59.5t105 21.5q49 0 91 -18.5t73 -49t47.5 -72.5t16.5 -90q0 -55 -22.5 -105t-61.5 -87t-88.5 -59.5t-104.5 -22.5q-49 0 -91 18.5 t-72.5 50t-48 73.5t-17.5 89zM621 1737q0 -53 34.5 -88t87.5 -35q59 0 104.5 43t45.5 104q0 51 -34 87t-89 36q-59 0 -104 -44t-45 -103z" />
<glyph unicode="&#xc6;" horiz-adv-x="1771" d="M4 0l858 1434h903l-18 -168h-617l-49 -469h617l-19 -168h-616l-47 -461h616l-18 -168h-805l22 221h-493l-129 -221h-205zM436 389h414l90 856z" />
<glyph unicode="&#xc7;" horiz-adv-x="1587" d="M156 645q0 158 57 306.5t164.5 263t260.5 183t341 68.5q143 0 257 -41t193.5 -112.5t124.5 -168.5t52 -212h-197q-8 78 -40 145.5t-88 116.5t-134 76.5t-178 27.5q-141 0 -257 -54t-197 -143t-125 -204t-44 -235q0 -109 35 -204.5t101.5 -167t160.5 -113.5t211 -42 q86 0 164 23.5t141.5 64.5t111.5 97.5t79 121.5h204q-35 -96 -103.5 -175t-160.5 -140t-201.5 -101t-226.5 -55l-16 -2l-12 -104q41 37 100 37t101 -39t42 -107q0 -41 -15 -77.5t-43 -64.5t-68 -45.5t-87 -17.5q-23 0 -54.5 5.5t-60 23t-51 49t-24.5 84.5h108q10 -66 82 -65 q45 0 75 27.5t30 68.5q0 35 -21.5 57.5t-60.5 22.5q-25 0 -47.5 -10.5t-38.5 -36.5h-92l20 196q-139 16 -245.5 76t-179.5 151t-110.5 204.5t-37.5 240.5z" />
<glyph unicode="&#xc8;" horiz-adv-x="1114" d="M160 0l151 1434h805l-18 -168h-619l-49 -469h619l-19 -168h-618l-47 -461h618l-18 -168h-805zM485 1788l99 139l481 -280l-100 -140z" />
<glyph unicode="&#xc9;" horiz-adv-x="1114" d="M160 0l151 1434h805l-18 -168h-619l-49 -469h619l-19 -168h-618l-47 -461h618l-18 -168h-805zM446 1675l539 281l72 -141l-539 -281z" />
<glyph unicode="&#xca;" horiz-adv-x="1114" d="M160 0l151 1434h805l-18 -168h-619l-49 -469h619l-19 -168h-618l-47 -461h618l-18 -168h-805zM383 1647l395 313l332 -313l-115 -115l-235 233l-283 -233z" />
<glyph unicode="&#xcb;" horiz-adv-x="1114" d="M160 0l151 1434h805l-18 -168h-619l-49 -469h619l-19 -168h-618l-47 -461h618l-18 -168h-805zM387 1714q0 33 13.5 61.5t35 50t50 34t59.5 12.5q57 0 94 -39t37 -94q0 -63 -47 -108.5t-111 -45.5q-59 0 -95 38t-36 91zM858 1714q0 66 47 112t111 46q57 0 94 -39t37 -92 q0 -66 -48 -111t-112 -45q-57 0 -93 38t-36 91z" />
<glyph unicode="&#xcc;" horiz-adv-x="512" d="M147 1786l101 139l481 -280l-100 -140zM160 0l151 1434h193l-152 -1434h-192z" />
<glyph unicode="&#xcd;" horiz-adv-x="512" d="M131 1645l539 280l71 -139l-538 -281zM160 0l149 1434h193l-150 -1434h-192z" />
<glyph unicode="&#xce;" horiz-adv-x="512" d="M68 1647l395 313l332 -313l-115 -115l-236 233l-284 -233zM160 0l151 1434h193l-152 -1434h-192z" />
<glyph unicode="&#xcf;" horiz-adv-x="512" d="M66 1714q0 33 13 61.5t34.5 50t50.5 34t59 12.5q57 0 94 -39t37 -94q0 -63 -47 -108.5t-112 -45.5q-59 0 -94 38t-35 91zM160 0l151 1434h193l-152 -1434h-192zM535 1714q0 33 13 61.5t34.5 50t50.5 34t59 12.5q57 0 94 -39t37 -94q0 -63 -47 -108.5t-110 -45.5 q-59 0 -95 38t-36 91z" />
<glyph unicode="&#xd0;" horiz-adv-x="1427" d="M-10 651l14 135h238l67 648h443q164 0 289.5 -55.5t210.5 -146.5t128 -209t43 -243q0 -145 -57 -285.5t-164.5 -250t-259 -177t-340.5 -67.5h-442l67 651h-237zM362 168h256q141 0 255 52t194 136t122 192.5t42 219.5q0 96 -32 186t-94.5 159t-154.5 111t-215 42h-256 l-51 -480h246l-15 -135h-245z" />
<glyph unicode="&#xd1;" horiz-adv-x="1357" d="M160 0l151 1434h207l529 -1108l116 1108h187l-152 -1434h-207l-528 1108l-117 -1108h-186zM459 1706q55 86 125.5 123t140.5 37q51 0 87 -15.5t65.5 -35t56 -35t59.5 -15.5q47 0 80 32t55 69l123 -68q-59 -92 -133 -133t-145 -41q-49 0 -86 15.5t-66.5 35t-57.5 34.5 t-61 15q-41 0 -72.5 -28.5t-58.5 -71.5z" />
<glyph unicode="&#xd2;" horiz-adv-x="1644" d="M156 645q0 158 59 305.5t166.5 262t258.5 184t333 69.5q162 0 287.5 -55t209.5 -149.5t128 -216t44 -254.5q0 -158 -59 -306.5t-166.5 -263.5t-257.5 -184.5t-332 -69.5q-164 0 -288.5 56.5t-209.5 149.5t-129 216t-44 256zM350 659q0 -102 32 -196t94.5 -167t154.5 -117 t211 -44q133 0 244.5 54.5t191.5 144.5t124 204.5t44 237.5q0 102 -32 196.5t-94.5 167t-154.5 115.5t-211 43q-133 0 -243.5 -54t-190.5 -143t-125 -204t-45 -238zM688 1815l100 141l480 -281l-101 -141z" />
<glyph unicode="&#xd3;" horiz-adv-x="1644" d="M156 645q0 158 59 305.5t166.5 262t258.5 184t333 69.5q162 0 287.5 -55t209.5 -149.5t128 -216t44 -254.5q0 -158 -59 -306.5t-166.5 -263.5t-257.5 -184.5t-332 -69.5q-164 0 -288.5 56.5t-209.5 149.5t-129 216t-44 256zM350 659q0 -102 32 -196t94.5 -167t154.5 -117 t211 -44q133 0 244.5 54.5t191.5 144.5t124 204.5t44 237.5q0 102 -32 196.5t-94.5 167t-154.5 115.5t-211 43q-133 0 -243.5 -54t-190.5 -143t-125 -204t-45 -238zM723 1675l541 281l71 -141l-540 -281z" />
<glyph unicode="&#xd4;" horiz-adv-x="1644" d="M156 645q0 158 59 305.5t166.5 262t258.5 184t333 69.5q162 0 287.5 -55t209.5 -149.5t128 -216t44 -254.5q0 -158 -59 -306.5t-166.5 -263.5t-257.5 -184.5t-332 -69.5q-164 0 -288.5 56.5t-209.5 149.5t-129 216t-44 256zM350 659q0 -102 32 -196t94.5 -167t154.5 -117 t211 -44q133 0 244.5 54.5t191.5 144.5t124 204.5t44 237.5q0 102 -32 196.5t-94.5 167t-154.5 115.5t-211 43q-133 0 -243.5 -54t-190.5 -143t-125 -204t-45 -238zM635 1647l395 313l332 -313l-115 -115l-237 233l-283 -233z" />
<glyph unicode="&#xd5;" horiz-adv-x="1644" d="M156 645q0 158 59 305.5t166.5 262t258.5 184t333 69.5q162 0 287.5 -55t209.5 -149.5t128 -216t44 -254.5q0 -158 -59 -306.5t-166.5 -263.5t-257.5 -184.5t-332 -69.5q-164 0 -288.5 56.5t-209.5 149.5t-129 216t-44 256zM350 659q0 -102 32 -196t94.5 -167t154.5 -117 t211 -44q133 0 244.5 54.5t191.5 144.5t124 204.5t44 237.5q0 102 -32 196.5t-94.5 167t-154.5 115.5t-211 43q-133 0 -243.5 -54t-190.5 -143t-125 -204t-45 -238zM623 1706q57 86 125.5 123t140.5 37q51 0 87 -15.5t65.5 -35t56 -35t57.5 -15.5q41 0 76 28t61 73l123 -68 q-59 -92 -132 -133t-144 -41q-49 0 -86 15.5t-67 35t-57.5 34.5t-60.5 15q-41 0 -72.5 -28.5t-58.5 -71.5z" />
<glyph unicode="&#xd6;" horiz-adv-x="1644" d="M156 645q0 158 59 305.5t166.5 262t258.5 184t333 69.5q162 0 287.5 -55t209.5 -149.5t128 -216t44 -254.5q0 -158 -59 -306.5t-166.5 -263.5t-257.5 -184.5t-332 -69.5q-164 0 -288.5 56.5t-209.5 149.5t-129 216t-44 256zM350 659q0 -102 32 -196t94.5 -167t154.5 -117 t211 -44q133 0 244.5 54.5t191.5 144.5t124 204.5t44 237.5q0 102 -32 196.5t-94.5 167t-154.5 115.5t-211 43q-133 0 -243.5 -54t-190.5 -143t-125 -204t-45 -238zM627 1714q0 66 46 112t109 46q57 0 94 -39t37 -94q0 -63 -47 -108.5t-110 -45.5q-59 0 -94 38t-35 91z M1096 1714q0 66 47 112t110 46q57 0 93 -39t36 -94q0 -63 -47 -108.5t-110 -45.5q-57 0 -93 38t-36 91z" />
<glyph unicode="&#xd7;" horiz-adv-x="1177" d="M270 354l258 236l-202 229l125 113l204 -230l260 238l115 -125l-264 -237l209 -232l-127 -110l-205 229l-260 -236z" />
<glyph unicode="&#xd8;" horiz-adv-x="1644" d="M156 645q0 158 59 305.5t166.5 262t260.5 184t337 69.5q59 0 113.5 -8t101.5 -24l88 163l121 -55l-86 -160q80 -43 140.5 -106.5t101 -142t62 -166.5t21.5 -181q0 -158 -59 -305t-166.5 -261t-260.5 -183.5t-337 -69.5q-66 0 -125 9.5t-110 27.5l-95 -176l-122 55l94 176 q-74 43 -131.5 106.5t-96 140.5t-58 163t-19.5 176zM350 662q0 -131 51.5 -248t149.5 -189l561 1051q-72 23 -154 22q-135 0 -246.5 -54t-191.5 -143t-125 -203.5t-45 -235.5zM668 164q76 -29 170 -29q135 0 246.5 54.5t192.5 143.5t125 202.5t44 234.5q0 135 -56.5 257 t-160.5 192z" />
<glyph unicode="&#xd9;" horiz-adv-x="1288" d="M195 465l102 969h186l-102 -969q-6 -68 9.5 -128.5t52 -105.5t91 -70.5t123.5 -25.5q70 0 131.5 26.5t107.5 72t74.5 104.5t35.5 127l102 969h186l-102 -969q-10 -102 -55 -192.5t-118 -158t-170 -107.5t-210 -40q-115 0 -202 40t-144 107.5t-83 157.5t-15 193zM559 1815 l100 141l482 -281l-101 -141z" />
<glyph unicode="&#xda;" horiz-adv-x="1288" d="M195 465l102 969h186l-102 -969q-6 -68 9.5 -128.5t52 -105.5t91 -70.5t123.5 -25.5q70 0 131.5 26.5t107.5 72t74.5 104.5t35.5 127l102 969h186l-102 -969q-10 -102 -55 -192.5t-118 -158t-170 -107.5t-210 -40q-115 0 -202 40t-144 107.5t-83 157.5t-15 193zM485 1675 l539 281l70 -141l-539 -281z" />
<glyph unicode="&#xdb;" horiz-adv-x="1288" d="M195 465l102 969h186l-102 -969q-6 -68 9.5 -128.5t52 -105.5t91 -70.5t123.5 -25.5q70 0 131.5 26.5t107.5 72t74.5 104.5t35.5 127l102 969h186l-102 -969q-10 -102 -55 -192.5t-118 -158t-170 -107.5t-210 -40q-115 0 -202 40t-144 107.5t-83 157.5t-15 193zM449 1647 l395 315l332 -315l-115 -115l-236 235l-284 -233z" />
<glyph unicode="&#xdc;" horiz-adv-x="1288" d="M195 465l102 969h186l-102 -969q-6 -68 9.5 -128.5t52 -105.5t91 -70.5t123.5 -25.5q70 0 131.5 26.5t107.5 72t74.5 104.5t35.5 127l102 969h186l-102 -969q-10 -102 -55 -192.5t-118 -158t-170 -107.5t-210 -40q-115 0 -202 40t-144 107.5t-83 157.5t-15 193zM444 1714 q0 66 47.5 112t110.5 46q57 0 94 -39t37 -94q0 -63 -48 -108.5t-112 -45.5q-57 0 -93 38t-36 91zM913 1714q0 33 13.5 61.5t35 50t50 34t59.5 12.5q57 0 94 -39t37 -94q0 -63 -47 -108.5t-111 -45.5q-59 0 -95 38t-36 91z" />
<glyph unicode="&#xdd;" horiz-adv-x="1210" d="M172 1434h217l350 -670l408 670h205l-873 -1434h-205l349 569zM557 1679l539 281l69 -141l-540 -281z" />
<glyph unicode="&#xde;" horiz-adv-x="1024" d="M160 0l151 1434h168l-28 -271h159q104 0 184 -34.5t134.5 -92t82 -132.5t27.5 -156q0 -94 -36.5 -183.5t-104.5 -159t-165 -111.5t-218 -42h-160l-26 -252h-168zM371 401h159q78 0 140.5 29t106.5 75t67.5 106.5t23.5 123.5q0 55 -17 105.5t-52 88.5t-86 61.5t-119 23.5 h-160z" />
<glyph unicode="&#xdf;" horiz-adv-x="1150" d="M145 0l109 1030q10 94 50 173t103.5 136.5t146.5 88t181 30.5q86 0 161 -24.5t129 -70.5t85 -112.5t31 -150.5q0 -135 -76 -226.5t-201 -125.5q111 -35 176.5 -117t65.5 -211q0 -106 -45 -189.5t-118 -139.5t-166 -86t-187 -30q-53 0 -96 7.5t-66 17.5l16 156 q37 -10 82 -15.5t80 -5.5q61 0 118.5 19.5t101.5 55.5t72 88t28 118q0 45 -15.5 91t-48.5 81t-84 57.5t-123 22.5h-88l17 159h82q76 0 132 22.5t93 59.5t54.5 83t17.5 93q0 100 -69 157.5t-173 57.5q-121 0 -200 -74.5t-91 -195.5l-108 -1030h-177z" />
<glyph unicode="&#xe0;" horiz-adv-x="1222" d="M129 420q0 106 41 203.5t111.5 171t166 116.5t203.5 43q113 0 195 -48t121 -136l16 160h176l-96 -930h-176l16 162q-53 -82 -145 -133.5t-209 -51.5q-94 0 -172 36t-133.5 96.5t-85 140.5t-29.5 170zM305 432q0 -61 19.5 -114.5t55.5 -93.5t89 -63.5t121 -23.5 q76 0 139.5 30t109.5 79t71.5 114.5t25.5 137.5q0 61 -19.5 114.5t-55.5 94.5t-88 64.5t-120 23.5q-76 0 -140 -30t-110.5 -80t-72 -115.5t-25.5 -137.5zM408 1311l100 139l481 -281l-102 -139z" />
<glyph unicode="&#xe1;" horiz-adv-x="1222" d="M129 420q0 106 41 203.5t111.5 171t166 116.5t203.5 43q113 0 195 -48t121 -136l16 160h176l-96 -930h-176l16 162q-53 -82 -145 -133.5t-209 -51.5q-94 0 -172 36t-133.5 96.5t-85 140.5t-29.5 170zM305 432q0 -61 19.5 -114.5t55.5 -93.5t89 -63.5t121 -23.5 q76 0 139.5 30t109.5 79t71.5 114.5t25.5 137.5q0 61 -19.5 114.5t-55.5 94.5t-88 64.5t-120 23.5q-76 0 -140 -30t-110.5 -80t-72 -115.5t-25.5 -137.5zM403 1169l539 281l72 -139l-541 -281z" />
<glyph unicode="&#xe2;" horiz-adv-x="1222" d="M129 420q0 106 41 203.5t111.5 171t166 116.5t203.5 43q113 0 195 -48t121 -136l16 160h176l-96 -930h-176l16 162q-53 -82 -145 -133.5t-209 -51.5q-94 0 -172 36t-133.5 96.5t-85 140.5t-29.5 170zM305 432q0 -61 19.5 -114.5t55.5 -93.5t89 -63.5t121 -23.5 q76 0 139.5 30t109.5 79t71.5 114.5t25.5 137.5q0 61 -19.5 114.5t-55.5 94.5t-88 64.5t-120 23.5q-76 0 -140 -30t-110.5 -80t-72 -115.5t-25.5 -137.5zM340 1198l395 315l332 -315l-115 -115l-235 236l-285 -234z" />
<glyph unicode="&#xe3;" horiz-adv-x="1222" d="M129 420q0 106 41 203.5t111.5 171t166 116.5t203.5 43q113 0 195 -48t121 -136l16 160h176l-96 -930h-176l16 162q-53 -82 -145 -133.5t-209 -51.5q-94 0 -172 36t-133.5 96.5t-85 140.5t-29.5 170zM305 432q0 -61 19.5 -114.5t55.5 -93.5t89 -63.5t121 -23.5 q76 0 139.5 30t109.5 79t71.5 114.5t25.5 137.5q0 61 -19.5 114.5t-55.5 94.5t-88 64.5t-120 23.5q-76 0 -140 -30t-110.5 -80t-72 -115.5t-25.5 -137.5zM354 1253q57 86 127 122t140 36q51 0 87.5 -15.5t65.5 -35t55.5 -34.5t59.5 -15q41 0 74.5 28.5t60.5 71.5l125 -68 q-61 -94 -134 -133t-143 -39q-51 0 -87.5 15.5t-66.5 35t-57.5 35t-58.5 15.5q-43 0 -74.5 -30t-58.5 -71z" />
<glyph unicode="&#xe4;" horiz-adv-x="1222" d="M129 420q0 106 41 203.5t111.5 171t166 116.5t203.5 43q113 0 195 -48t121 -136l16 160h176l-96 -930h-176l16 162q-53 -82 -145 -133.5t-209 -51.5q-94 0 -172 36t-133.5 96.5t-85 140.5t-29.5 170zM305 432q0 -61 19.5 -114.5t55.5 -93.5t89 -63.5t121 -23.5 q76 0 139.5 30t109.5 79t71.5 114.5t25.5 137.5q0 61 -19.5 114.5t-55.5 94.5t-88 64.5t-120 23.5q-76 0 -140 -30t-110.5 -80t-72 -115.5t-25.5 -137.5zM319 1237q0 66 47.5 111t110.5 45q57 0 94 -38t37 -93q0 -66 -47 -111t-110 -45q-57 0 -94.5 38t-37.5 93zM791 1237 q0 33 13 60.5t34.5 49t50.5 34t59 12.5q57 0 94 -38t37 -93q0 -66 -48 -111t-111 -45q-57 0 -93 38t-36 93z" />
<glyph unicode="&#xe5;" horiz-adv-x="1222" d="M129 420q0 106 41 203.5t111.5 171t166 116.5t203.5 43q113 0 195 -48t121 -136l16 160h176l-96 -930h-176l16 162q-53 -82 -145 -133.5t-209 -51.5q-94 0 -172 36t-133.5 96.5t-85 140.5t-29.5 170zM305 432q0 -61 19.5 -114.5t55.5 -93.5t89 -63.5t121 -23.5 q76 0 139.5 30t109.5 79t71.5 114.5t25.5 137.5q0 61 -19.5 114.5t-55.5 94.5t-88 64.5t-120 23.5q-76 0 -140 -30t-110.5 -80t-72 -115.5t-25.5 -137.5zM442 1272q0 57 23.5 108.5t63.5 89t92.5 60t107.5 22.5q51 0 95 -19.5t77 -51t50.5 -74.5t17.5 -92 q0 -57 -23.5 -108.5t-63.5 -90.5t-92.5 -61.5t-109.5 -22.5q-51 0 -95 18.5t-76 51.5t-49.5 77t-17.5 93zM557 1280q0 -55 37 -95t96 -40q33 0 61.5 13t51 36t36 52.5t13.5 62.5q0 55 -36 95t-95 40q-33 0 -62.5 -13.5t-52 -36t-36 -52t-13.5 -62.5z" />
<glyph unicode="&#xe6;" horiz-adv-x="1871" d="M129 420q0 106 41 203.5t111.5 171t166 116.5t203.5 43q113 0 195 -48t121 -136l16 160h176l-8 -82q55 49 130 77.5t161 28.5t157.5 -28.5t124 -79.5t81 -124t28.5 -159q0 -39 -6 -72.5t-17 -72.5h-700q-6 -59 5 -112.5t41 -93.5t80 -62.5t124 -22.5q106 0 165.5 44 t88.5 103h180q-16 -55 -55 -109t-96.5 -95t-132 -67t-162.5 -26q-96 0 -164 30t-113 77l-8 -84h-176l16 162q-53 -82 -145 -133.5t-209 -51.5q-94 0 -172 36t-133.5 96.5t-85 140.5t-29.5 170zM305 432q0 -61 19.5 -114.5t55.5 -93.5t89 -63.5t121 -23.5q76 0 139.5 30 t109.5 79t71.5 114.5t25.5 137.5q0 61 -19.5 115.5t-56.5 94.5t-89 63.5t-118 23.5q-76 0 -140 -30t-110.5 -80t-72 -115.5t-25.5 -137.5zM1126 553h533q12 113 -54.5 181.5t-183.5 68.5q-55 0 -105 -16.5t-90 -48t-65.5 -79t-34.5 -106.5z" />
<glyph unicode="&#xe7;" horiz-adv-x="1083" d="M133 416q0 100 35 197.5t101.5 173t164.5 121.5t228 46q104 0 178.5 -30.5t122 -81.5t70 -115.5t20.5 -134.5h-179q0 39 -12 76t-39.5 65.5t-70.5 45t-105 16.5q-84 0 -147.5 -31t-105.5 -83t-62.5 -118.5t-20.5 -136.5q0 -59 15.5 -111.5t48.5 -92.5t85 -62.5t126 -22.5 q111 0 171 49.5t91 132.5h178q-29 -90 -68.5 -150t-85 -97t-91.5 -54.5t-86 -24.5t-70.5 -8t-42.5 -3q-8 -2 -8.5 -3.5t-4.5 1.5l-12 -115q16 16 43 26.5t57 10.5q59 0 100.5 -39t41.5 -109q0 -41 -15.5 -76.5t-44 -64.5t-67.5 -45.5t-86 -16.5q-23 0 -54.5 6.5t-61.5 23 t-52.5 48t-24.5 84.5h109q12 -66 84 -65q47 0 74.5 27.5t27.5 68.5q0 35 -21.5 57.5t-58.5 22.5q-23 0 -46 -10.5t-40 -36.5h-94l23 209q-80 16 -139.5 57t-99.5 98.5t-59.5 128t-19.5 146.5z" />
<glyph unicode="&#xe8;" horiz-adv-x="1075" d="M133 412q0 113 36 212t102.5 172.5t158.5 115.5t205 42q92 0 165.5 -28.5t126 -80.5t81 -123t28.5 -155q0 -43 -7 -76.5t-17 -72.5h-705q-4 -55 7.5 -107.5t41 -93.5t80.5 -65.5t129 -24.5q109 0 166 44t86 103h180q-18 -59 -57 -112t-96.5 -94t-133 -66t-165.5 -25 q-104 0 -182 34t-129.5 92.5t-76 137t-24.5 171.5zM324 553h538q14 123 -53 193.5t-186 70.5q-57 0 -107.5 -17.5t-90.5 -51t-66.5 -83t-34.5 -112.5zM424 1311l98 139l482 -281l-99 -139z" />
<glyph unicode="&#xe9;" horiz-adv-x="1075" d="M133 412q0 113 36 212t102.5 172.5t158.5 115.5t205 42q92 0 165.5 -28.5t126 -80.5t81 -123t28.5 -155q0 -43 -7 -76.5t-17 -72.5h-705q-4 -55 7.5 -107.5t41 -93.5t80.5 -65.5t129 -24.5q109 0 166 44t86 103h180q-18 -59 -57 -112t-96.5 -94t-133 -66t-165.5 -25 q-104 0 -182 34t-129.5 92.5t-76 137t-24.5 171.5zM324 553h538q14 123 -53 193.5t-186 70.5q-57 0 -107.5 -17.5t-90.5 -51t-66.5 -83t-34.5 -112.5zM354 1169l539 281l70 -139l-539 -281z" />
<glyph unicode="&#xea;" horiz-adv-x="1075" d="M133 412q0 113 36 212t102.5 172.5t158.5 115.5t205 42q92 0 165.5 -28.5t126 -80.5t81 -123t28.5 -155q0 -43 -7 -76.5t-17 -72.5h-705q-4 -55 7.5 -107.5t41 -93.5t80.5 -65.5t129 -24.5q109 0 166 44t86 103h180q-18 -59 -57 -112t-96.5 -94t-133 -66t-165.5 -25 q-104 0 -182 34t-129.5 92.5t-76 137t-24.5 171.5zM307 1198l398 315l329 -315l-112 -115l-236 236l-285 -234zM324 553h538q14 123 -53 193.5t-186 70.5q-57 0 -107.5 -17.5t-90.5 -51t-66.5 -83t-34.5 -112.5z" />
<glyph unicode="&#xeb;" horiz-adv-x="1075" d="M133 412q0 113 36 212t102.5 172.5t158.5 115.5t205 42q92 0 165.5 -28.5t126 -80.5t81 -123t28.5 -155q0 -43 -7 -76.5t-17 -72.5h-705q-4 -55 7.5 -107.5t41 -93.5t80.5 -65.5t129 -24.5q109 0 166 44t86 103h180q-18 -59 -57 -112t-96.5 -94t-133 -66t-165.5 -25 q-104 0 -182 34t-129.5 92.5t-76 137t-24.5 171.5zM297 1235q0 66 47 112t109 46q57 0 94 -39t37 -92q0 -66 -48.5 -111t-111.5 -45q-55 0 -91 37t-36 92zM324 553h538q14 123 -53 193.5t-186 70.5q-57 0 -107.5 -17.5t-90.5 -51t-66.5 -83t-34.5 -112.5zM766 1237 q0 66 47 111t111 45q57 0 93 -38t36 -93q0 -66 -47.5 -111t-110.5 -45q-57 0 -93 38t-36 93z" />
<glyph unicode="&#xec;" horiz-adv-x="497" d="M92 1341l101 140l481 -281l-101 -139zM160 0l98 930h178l-98 -930h-178z" />
<glyph unicode="&#xed;" horiz-adv-x="497" d="M78 1200l540 281l70 -140l-538 -280zM160 0l98 930h178l-98 -930h-178z" />
<glyph unicode="&#xee;" horiz-adv-x="497" d="M10 1198l396 315l331 -315l-114 -115l-236 236l-285 -234zM160 0l96 930h178l-96 -930h-178z" />
<glyph unicode="&#xef;" horiz-adv-x="497" d="M49 1237q0 66 46 111t110 45q57 0 95 -38t38 -93q0 -66 -47 -111t-111 -45q-57 0 -94 38t-37 93zM160 0l98 930h178l-98 -930h-178zM459 1237q0 66 47 111t110 45q57 0 94.5 -38t37.5 -93q0 -66 -48.5 -111t-111.5 -45q-57 0 -93 38t-36 93z" />
<glyph unicode="&#xf0;" d="M135 418q0 106 41 203.5t112.5 171t168 117.5t207.5 44q72 0 90 -24l-90 178l-238 -125l-49 109l231 118l-114 224h215l65 -136l184 97l50 -107l-179 -94l222 -426q31 -59 50 -124.5t19 -139.5q0 -104 -41 -199.5t-112.5 -168.5t-170.5 -116t-216 -43q-104 0 -187.5 36 t-140.5 95.5t-87 139.5t-30 170zM311 432q0 -61 19.5 -114.5t55.5 -93.5t89 -63.5t121 -23.5q76 0 139.5 30t109.5 79t71.5 114.5t25.5 137.5q0 61 -18.5 114.5t-55.5 94.5t-89 64.5t-120 23.5q-76 0 -139 -30t-109 -80t-73 -115.5t-27 -137.5z" />
<glyph unicode="&#xf1;" d="M160 0l98 930h178l-18 -164q51 86 140 137t212 51q86 0 153.5 -28.5t108.5 -94.5q35 -55 43 -123.5t-2 -158.5l-57 -549h-178l51 494q6 63 0 119.5t-29.5 96.5t-65.5 63.5t-106 23.5q-72 0 -125 -28t-90 -72t-57.5 -101t-26.5 -117l-51 -479h-178zM336 1253 q57 86 126.5 122t139.5 36q51 0 88 -15.5t65.5 -35t55 -34.5t59.5 -15q41 0 76 28.5t60 71.5l124 -68q-59 -94 -132.5 -133t-143.5 -39q-51 0 -88 15.5t-66.5 35t-57.5 35t-58 15.5q-43 0 -75 -30t-58 -71z" />
<glyph unicode="&#xf2;" horiz-adv-x="1146" d="M129 420q0 106 40 202.5t112.5 170t172 117.5t216.5 44q104 0 187 -34.5t139.5 -95t87 -141.5t30.5 -171q0 -106 -41 -203.5t-112.5 -171.5t-172 -117t-217.5 -43q-104 0 -187 36t-139.5 96.5t-86 140.5t-29.5 170zM305 432q0 -61 19.5 -114.5t55.5 -93.5t89 -63.5 t121 -23.5q76 0 139.5 30t109.5 79t71.5 114.5t25.5 137.5q0 61 -19.5 114.5t-55.5 94.5t-88 64.5t-120 23.5q-76 0 -140 -30t-110.5 -80t-72 -115.5t-25.5 -137.5zM428 1311l98 139l482 -281l-101 -139z" />
<glyph unicode="&#xf3;" horiz-adv-x="1146" d="M129 420q0 106 40 202.5t112.5 170t172 117.5t216.5 44q104 0 187 -34.5t139.5 -95t87 -141.5t30.5 -171q0 -106 -41 -203.5t-112.5 -171.5t-172 -117t-217.5 -43q-104 0 -187 36t-139.5 96.5t-86 140.5t-29.5 170zM305 432q0 -61 19.5 -114.5t55.5 -93.5t89 -63.5 t121 -23.5q76 0 139.5 30t109.5 79t71.5 114.5t25.5 137.5q0 61 -19.5 114.5t-55.5 94.5t-88 64.5t-120 23.5q-76 0 -140 -30t-110.5 -80t-72 -115.5t-25.5 -137.5zM354 1169l539 281l70 -139l-541 -281z" />
<glyph unicode="&#xf4;" horiz-adv-x="1146" d="M129 420q0 106 40 202.5t112.5 170t172 117.5t216.5 44q104 0 187 -34.5t139.5 -95t87 -141.5t30.5 -171q0 -106 -41 -203.5t-112.5 -171.5t-172 -117t-217.5 -43q-104 0 -187 36t-139.5 96.5t-86 140.5t-29.5 170zM305 432q0 -61 19.5 -114.5t55.5 -93.5t89 -63.5 t121 -23.5q76 0 139.5 30t109.5 79t71.5 114.5t25.5 137.5q0 61 -19.5 114.5t-55.5 94.5t-88 64.5t-120 23.5q-76 0 -140 -30t-110.5 -80t-72 -115.5t-25.5 -137.5zM334 1200l393 313l334 -313l-117 -117l-235 236l-283 -234z" />
<glyph unicode="&#xf5;" horiz-adv-x="1146" d="M129 420q0 106 40 202.5t112.5 170t172 117.5t216.5 44q104 0 187 -34.5t139.5 -95t87 -141.5t30.5 -171q0 -106 -41 -203.5t-112.5 -171.5t-172 -117t-217.5 -43q-104 0 -187 36t-139.5 96.5t-86 140.5t-29.5 170zM305 432q0 -61 19.5 -114.5t55.5 -93.5t89 -63.5 t121 -23.5q76 0 139.5 30t109.5 79t71.5 114.5t25.5 137.5q0 61 -19.5 114.5t-55.5 94.5t-88 64.5t-120 23.5q-76 0 -140 -30t-110.5 -80t-72 -115.5t-25.5 -137.5zM311 1253q57 86 127 122t140 36q51 0 87.5 -15.5t65.5 -35t55.5 -34.5t59.5 -15q41 0 74.5 28.5t60.5 71.5 l125 -68q-61 -94 -134 -133t-143 -39q-51 0 -87.5 15.5t-66.5 35t-57.5 35t-58.5 15.5q-43 0 -74.5 -30t-58.5 -71z" />
<glyph unicode="&#xf6;" horiz-adv-x="1146" d="M129 420q0 106 40 202.5t112.5 170t172 117.5t216.5 44q104 0 187 -34.5t139.5 -95t87 -141.5t30.5 -171q0 -106 -41 -203.5t-112.5 -171.5t-172 -117t-217.5 -43q-104 0 -187 36t-139.5 96.5t-86 140.5t-29.5 170zM305 432q0 -61 19.5 -114.5t55.5 -93.5t89 -63.5 t121 -23.5q76 0 139.5 30t109.5 79t71.5 114.5t25.5 137.5q0 61 -19.5 114.5t-55.5 94.5t-88 64.5t-120 23.5q-76 0 -140 -30t-110.5 -80t-72 -115.5t-25.5 -137.5zM324 1237q0 66 47 111t110 45q57 0 94 -38t37 -93q0 -66 -47 -111t-110 -45q-57 0 -94 38t-37 93zM795 1237 q0 33 13 60.5t34.5 49t50.5 34t59 12.5q57 0 94 -38t37 -93q0 -33 -13 -60.5t-35.5 -49.5t-51.5 -34t-59 -12q-57 0 -93 39t-36 92z" />
<glyph unicode="&#xf7;" horiz-adv-x="1177" d="M219 401l17 158h827l-16 -158h-828zM465 158q0 31 13.5 59.5t35 51t50 35.5t59.5 13q57 0 94 -42t37 -93q0 -31 -13.5 -57.5t-35 -48t-50 -33.5t-59.5 -12q-57 0 -94 38t-37 89zM530 793q0 66 47.5 110.5t110.5 44.5q57 0 94 -38t37 -93q0 -66 -47 -110.5t-110 -44.5 q-57 0 -94.5 38t-37.5 93z" />
<glyph unicode="&#xf8;" horiz-adv-x="1146" d="M129 420q0 106 40 202.5t111.5 170t170 117.5t213.5 44q41 0 71.5 -5t61.5 -11l77 145l107 -45l-76 -141q100 -57 154.5 -160.5t54.5 -226.5q0 -106 -40 -202.5t-112.5 -170.5t-174 -117t-222.5 -43q-39 0 -74.5 5.5t-68.5 17.5l-82 -154l-107 45l82 156 q-90 57 -138 156.5t-48 216.5zM305 434q0 -70 24.5 -130t69.5 -101l316 583q-23 4 -36 6.5t-30 2.5q-74 0 -137 -30t-109.5 -79t-72 -114.5t-25.5 -137.5zM502 147q20 -6 41 -8t39 -2q80 0 145.5 30t111.5 79t71.5 113.5t25.5 136.5q0 76 -29.5 140t-85.5 105z" />
<glyph unicode="&#xf9;" d="M181 213q-9 68 1 168l58 549h178l-51 -492q-6 -66 0 -121t29.5 -96t64.5 -63.5t104 -22.5q70 0 123 26.5t91 70.5t59.5 101.5t27.5 119.5l49 477h181l-99 -930h-178l19 166q-51 -86 -140.5 -137.5t-212.5 -51.5q-88 0 -155.5 30t-108.5 91q-31 47 -40 115zM420 1311 l100 139l481 -281l-100 -139z" />
<glyph unicode="&#xfa;" d="M181 213q-9 68 1 168l58 549h178l-51 -492q-6 -66 0 -121t29.5 -96t64.5 -63.5t104 -22.5q70 0 123 26.5t91 70.5t59.5 101.5t27.5 119.5l49 477h181l-99 -930h-178l19 166q-51 -86 -140.5 -137.5t-212.5 -51.5q-88 0 -155.5 30t-108.5 91q-31 47 -40 115zM397 1169 l539 281l70 -139l-539 -281z" />
<glyph unicode="&#xfb;" d="M181 213q-9 68 1 168l58 549h178l-51 -492q-6 -66 0 -121t29.5 -96t64.5 -63.5t104 -22.5q70 0 123 26.5t91 70.5t59.5 101.5t27.5 119.5l49 477h181l-99 -930h-178l19 166q-51 -86 -140.5 -137.5t-212.5 -51.5q-88 0 -155.5 30t-108.5 91q-31 47 -40 115zM346 1198 l395 315l332 -315l-115 -115l-235 236l-285 -234z" />
<glyph unicode="&#xfc;" d="M181 213q-9 68 1 168l58 549h178l-51 -492q-6 -66 0 -121t29.5 -96t64.5 -63.5t104 -22.5q70 0 123 26.5t91 70.5t59.5 101.5t27.5 119.5l49 477h181l-99 -930h-178l19 166q-51 -86 -140.5 -137.5t-212.5 -51.5q-88 0 -155.5 30t-108.5 91q-31 47 -40 115zM324 1237 q0 66 47 111t110 45q57 0 94 -38t37 -93q0 -66 -47 -111t-110 -45q-57 0 -94 38t-37 93zM795 1237q0 66 47 111t110 45q55 0 93 -38t38 -93q0 -66 -49 -111t-112 -45q-55 0 -91 38t-36 93z" />
<glyph unicode="&#xfd;" horiz-adv-x="1173" d="M131 -121h180q-4 -123 52.5 -187.5t187.5 -64.5q55 0 102 13.5t84 45t61.5 85t32.5 133.5l27 262q-51 -86 -138 -137.5t-212 -51.5q-100 0 -164.5 33t-99.5 86t-42 122t3 169l57 543h178l-51 -488q-6 -68 -1 -124t27.5 -97t64.5 -63.5t108 -22.5q72 0 126 26.5t91 72 t57.5 102.5t26.5 117l49 477h180l-108 -1026q-23 -223 -148 -325.5t-332 -102.5q-217 0 -316 104.5t-83 298.5zM418 1169l538 281l72 -139l-539 -281z" />
<glyph unicode="&#xfe;" horiz-adv-x="1216" d="M106 -504l203 1938h178l-69 -664q59 90 151.5 137t200.5 47q94 0 172 -34.5t133 -95t86 -141.5t31 -173q0 -106 -41 -202.5t-111.5 -170.5t-165 -117t-202.5 -43q-115 0 -197 48.5t-121 136.5l-69 -666h-179zM385 432q0 -61 19.5 -114.5t55.5 -93.5t88 -63.5t120 -23.5 q76 0 139 30t109.5 79t72 114.5t25.5 137.5q0 61 -18.5 114.5t-54.5 94.5t-88 64.5t-120 23.5q-76 0 -139.5 -30t-109.5 -80t-72.5 -115.5t-26.5 -137.5z" />
<glyph unicode="&#xff;" horiz-adv-x="1173" d="M131 -121h180q-4 -123 52.5 -187.5t187.5 -64.5q55 0 102 13.5t84 45t61.5 85t32.5 133.5l27 262q-51 -86 -138 -137.5t-212 -51.5q-100 0 -164.5 33t-99.5 86t-42 122t3 169l57 543h178l-51 -488q-6 -68 -1 -124t27.5 -97t64.5 -63.5t108 -22.5q72 0 126 26.5t91 72 t57.5 102.5t26.5 117l49 477h180l-108 -1026q-23 -223 -148 -325.5t-332 -102.5q-217 0 -316 104.5t-83 298.5zM365 1235q0 31 12 58.5t33.5 48t48 32.5t57.5 12q53 0 88 -36.5t35 -89.5q0 -61 -46 -104.5t-106 -43.5q-53 0 -87.5 35t-34.5 88zM836 1235q0 63 45 107t104 44 q55 0 90 -36.5t35 -89.5q0 -61 -45 -104.5t-107 -43.5q-55 0 -88.5 35t-33.5 88z" />
<glyph unicode="&#x152;" horiz-adv-x="2320" d="M154 643q0 156 59 304.5t166.5 263t258 184t333.5 69.5q186 0 315 -71.5t207 -190.5l25 232h802l-18 -168h-616l-50 -469h617l-17 -168h-616l-49 -461h616l-16 -168h-803l23 225q-100 -117 -245 -189.5t-329 -72.5q-160 0 -283.5 56.5t-207.5 150.5t-128 217t-44 256z M348 655q0 -102 32 -196t95.5 -166t154.5 -116t212 -44q133 0 243.5 54.5t190.5 143.5t124 203.5t44 237.5q0 102 -32 196.5t-94.5 167t-154.5 115.5t-211 43q-133 0 -243.5 -54t-190.5 -143t-125 -204t-45 -238z" />
<glyph unicode="&#x153;" horiz-adv-x="1871" d="M129 420q0 106 40 202.5t112.5 170t172 117.5t216.5 44q139 0 231 -57t143 -145q59 90 162 146t232 56q88 0 160.5 -28.5t125 -79.5t81 -124t28.5 -159q0 -39 -6 -72.5t-17 -72.5h-700q-6 -61 5 -113.5t41 -92.5t80 -62.5t124 -22.5q106 0 165.5 44t88.5 103h180 q-18 -59 -58 -112t-97.5 -94t-131 -66t-161.5 -25q-137 0 -226.5 56.5t-132.5 146.5q-70 -92 -177.5 -147.5t-240.5 -55.5q-104 0 -185 36t-138.5 96.5t-87 140.5t-29.5 170zM305 432q0 -61 19.5 -114.5t55.5 -93.5t89 -63.5t121 -23.5q74 0 137.5 29t109.5 78t72.5 114.5 t26.5 139.5q0 61 -19.5 115.5t-56.5 94.5t-89 63.5t-118 23.5q-76 0 -140 -30t-110.5 -80t-72 -115.5t-25.5 -137.5zM1126 553h533q12 115 -54.5 182.5t-183.5 67.5q-55 0 -105 -16.5t-90 -48t-65.5 -79t-34.5 -106.5z" />
<glyph unicode="&#x178;" horiz-adv-x="1210" d="M172 1434h217l350 -670l408 670h205l-873 -1434h-205l349 569zM459 1714q0 63 44 107.5t105 44.5q53 0 89 -37t36 -90q0 -61 -45 -104.5t-106 -43.5q-55 0 -89 35t-34 88zM928 1714q0 31 12 58.5t33.5 48t48.5 33t57 12.5q55 0 89 -37t34 -90q0 -61 -44 -104.5 t-105 -43.5q-55 0 -90 35t-35 88z" />
<glyph unicode="&#x2c6;" horiz-adv-x="960" d="M256 1427l399 297l338 -297l-123 -124l-237 206l-277 -204z" />
<glyph unicode="&#x2dc;" horiz-adv-x="1019" d="M295 1356q49 29 84 45t60.5 23.5t43 8.5t31.5 1q23 0 61.5 -8.5t80.5 -19.5t83 -19.5t70 -8.5q10 0 22.5 2t30 8.5t43 16.5t62.5 29l57 -115q-45 -29 -97.5 -56.5t-115.5 -27.5q-35 0 -74 8t-79 18.5t-76.5 18.5t-65.5 8q-33 0 -68.5 -12t-87.5 -37z" />
<glyph unicode="&#x2000;" horiz-adv-x="999" />
<glyph unicode="&#x2001;" horiz-adv-x="1999" />
<glyph unicode="&#x2002;" horiz-adv-x="999" />
<glyph unicode="&#x2003;" horiz-adv-x="1999" />
<glyph unicode="&#x2004;" horiz-adv-x="666" />
<glyph unicode="&#x2005;" horiz-adv-x="499" />
<glyph unicode="&#x2006;" horiz-adv-x="333" />
<glyph unicode="&#x2007;" horiz-adv-x="333" />
<glyph unicode="&#x2008;" horiz-adv-x="249" />
<glyph unicode="&#x2009;" horiz-adv-x="399" />
<glyph unicode="&#x200a;" horiz-adv-x="111" />
<glyph unicode="&#x2010;" horiz-adv-x="602" d="M115 504l16 160h479l-16 -160h-479z" />
<glyph unicode="&#x2011;" horiz-adv-x="602" d="M115 504l16 160h479l-16 -160h-479z" />
<glyph unicode="&#x2012;" horiz-adv-x="602" d="M115 504l16 160h479l-16 -160h-479z" />
<glyph unicode="&#x2013;" horiz-adv-x="1030" d="M156 504l16 160h825l-16 -160h-825z" />
<glyph unicode="&#x2014;" horiz-adv-x="2060" d="M156 504l16 160h1856l-17 -160h-1855z" />
<glyph unicode="&#x2018;" horiz-adv-x="550" d="M250 1217q0 152 90 225.5t238 73.5l-9 -86q-111 0 -149 -62q-35 -45 -39 -86q14 14 53 14q51 0 84 -34.5t33 -87.5q0 -63 -45 -107.5t-113 -44.5q-66 0 -104.5 48t-38.5 147z" />
<glyph unicode="&#x2019;" horiz-adv-x="550" d="M242 1022l10 84q53 0 90 17.5t57 45.5q20 25 27.5 45.5t9.5 40.5q-10 -14 -49 -14q-53 0 -87 35t-34 88q0 61 45 106.5t115 45.5q66 0 103.5 -48.5t37.5 -146.5q0 -147 -86 -223t-239 -76z" />
<glyph unicode="&#x201a;" horiz-adv-x="550" d="M111 -242l8 86q106 0 149 62q18 23 26.5 45t10.5 41q-10 -14 -51 -15q-53 0 -86 35t-33 88q0 63 45 108.5t115 45.5q66 0 103.5 -48t37.5 -147q0 -154 -90 -227.5t-235 -73.5z" />
<glyph unicode="&#x201c;" horiz-adv-x="909" d="M250 1217q0 152 90 225.5t238 73.5l-9 -86q-111 0 -149 -62q-35 -45 -39 -86q14 14 53 14q51 0 84 -34.5t33 -87.5q0 -63 -45 -107.5t-113 -44.5q-66 0 -104.5 48t-38.5 147zM608 1214q0 152 89 227t237 75l-8 -86q-106 0 -150 -62q-18 -23 -26.5 -45.5t-10.5 -40.5 q10 14 52 14q53 0 85.5 -34.5t32.5 -87.5q0 -63 -45 -107.5t-112 -44.5q-66 0 -105 47t-39 145z" />
<glyph unicode="&#x201d;" horiz-adv-x="909" d="M242 1022l10 84q53 0 90 17.5t57 45.5q20 25 27.5 45.5t9.5 40.5q-10 -14 -49 -14q-53 0 -87 35t-34 88q0 61 45 106.5t115 45.5q66 0 103.5 -48.5t37.5 -146.5q0 -147 -86 -223t-239 -76zM598 1022l10 84q53 0 91 17.5t57 45.5q20 25 28.5 45.5t10.5 40.5 q-14 -14 -52 -14q-53 0 -85.5 35t-32.5 88q0 61 45 106.5t114 45.5q66 0 104 -48.5t38 -148.5q0 -147 -86 -222t-242 -75z" />
<glyph unicode="&#x201e;" horiz-adv-x="909" d="M111 -242l8 86q106 0 149 62q18 23 26.5 45t10.5 41q-10 -14 -51 -15q-53 0 -86 35t-33 88q0 63 45 108.5t115 45.5q66 0 103.5 -48t37.5 -147q0 -154 -90 -227.5t-235 -73.5zM467 -242l8 86q111 0 150 62q35 45 39 86q-14 -14 -54 -15q-51 0 -83.5 35t-32.5 88 q0 63 45 108.5t112 45.5q66 0 105 -49t39 -148q0 -150 -89.5 -224.5t-238.5 -74.5z" />
<glyph unicode="&#x2022;" horiz-adv-x="712" d="M184 618q0 53 21.5 100.5t58.5 83.5t84 56.5t101 20.5q94 0 154.5 -63.5t60.5 -156.5q0 -53 -21.5 -100t-57.5 -82t-84 -55.5t-100 -20.5q-96 0 -156.5 62.5t-60.5 154.5z" />
<glyph unicode="&#x2026;" horiz-adv-x="1923" d="M131 119q0 33 13.5 61.5t35 50t50 33.5t59.5 12q57 0 94 -38.5t37 -92.5q0 -66 -49 -110.5t-113 -44.5q-55 0 -91 38t-36 91zM831 119q0 33 13.5 60.5t35 49t50 33.5t59.5 12q57 0 94 -37.5t37 -93.5q0 -33 -13 -60.5t-35.5 -49t-51.5 -33.5t-59 -12q-57 0 -93.5 39 t-36.5 92zM1532 117q0 66 47 110.5t111 44.5q55 0 93 -37.5t38 -93.5q0 -33 -13.5 -60.5t-36 -49t-51 -33.5t-59.5 -12q-57 0 -93 38t-36 93z" />
<glyph unicode="&#x202f;" horiz-adv-x="399" />
<glyph unicode="&#x2039;" horiz-adv-x="565" d="M139 543l13 108l436 342l-19 -176l-280 -221l233 -221l-18 -174z" />
<glyph unicode="&#x203a;" horiz-adv-x="565" d="M102 201l19 174l280 221l-233 221l18 176l365 -342l-10 -108z" />
<glyph unicode="&#x205f;" horiz-adv-x="499" />
<glyph unicode="&#x20ac;" horiz-adv-x="1214" d="M76 487l47 138h96l19 182h-127l49 135h92l2 23q8 98 52 187t116 156.5t167 107.5t208 40q104 0 188 -36t140.5 -96t86 -142t27.5 -174h-188q0 57 -18.5 108t-53.5 89t-86 59.5t-115 21.5q-72 0 -131 -26.5t-103 -71.5t-71 -102.5t-33 -120.5l-2 -23h469l-49 -135h-434 l-18 -182h464l-47 -138h-432l-2 -20q-6 -66 8.5 -124t49 -102t88 -70t122.5 -26q70 0 129.5 26t103.5 70t72.5 102t34.5 124h187q-10 -98 -54.5 -187.5t-116 -157t-165.5 -106.5t-207 -39t-199 40t-143 108t-81.5 156t-14.5 186l2 20h-129z" />
<glyph unicode="&#x2122;" horiz-adv-x="1660" d="M219 1313l12 121h541l-12 -121h-205l-76 -713h-133l76 713h-203zM819 600l88 834h219l144 -603l270 603h219l-88 -834h-133l74 684l-307 -684h-119l-160 684l-74 -684h-133z" />
<glyph unicode="&#x25fc;" horiz-adv-x="931" d="M0 0v932h932v-932h-932z" />
</font>
</defs>
</svg>
